<svg xmlns="http://www.w3.org/2000/svg" width="640" height="640" viewBox="669.61 -28.18 361.09 361.09" preserveAspectRatio="xMidYMid meet"><path d="M763.292 121.215L862.327 64L927.973 103.923L937.311 109.602V174.403L940.706 176.468V181.566L838.277 240.743L759.613 192.875V187.776L763.292 185.651V121.215Z" fill="#E7C9A9"/><path d="M763.292 121.215L862.327 64L937.311 109.602M763.292 121.215L838.276 166.817M763.292 121.215V185.651M838.276 166.817V233.378M838.276 166.817L937.311 109.602M838.276 233.378L763.292 187.776V185.651M838.276 233.378L842.237 231.09M937.311 109.602V174.403M828.938 161.138L927.973 103.923M759.613 187.776L838.277 235.644M759.613 187.776V192.875L838.277 240.743M759.613 187.776L763.292 185.651M838.277 235.644L940.706 176.468M838.277 235.644V240.743M940.706 176.468V181.566L838.277 240.743M940.706 176.468L937.311 174.403M835.163 196.84V213.268M842.237 231.09L937.311 176.164V174.403M842.237 231.09V181.566L847.613 173.331L928.822 126.415L935.613 133.111V177.144" stroke="#111111" stroke-width="0.5"/><path d="M830.066 246.408L751.402 198.54M848.459 246.408L950.887 187.231M948.626 106.203V172.765" stroke="white" stroke-width="0.5"/><path d="M935.61 177.143L926.987 182.125L923.443 184.173L919.913 186.212L916.369 188.259L911.559 191.038L908.015 193.086L904.202 195.289L900.658 197.336L896.427 199.78L892.884 201.827L888.074 204.606L884.53 206.654L880.151 209.184L876.607 211.231L871.527 214.166L867.984 216.213L863.173 218.992L859.63 221.039L853.984 224.301L850.44 226.348L842.234 231.089V227.713V221.986V215.755V210.435V204.487V198.822V191.741V186.212V181.565L847.611 173.33L850.44 171.695L853.984 169.648L859.63 166.387L863.173 164.339L867.984 161.56L871.527 159.513L876.607 156.578L880.151 154.531L884.53 152.001L888.074 149.954L892.884 147.175L896.427 145.128L900.658 142.683L904.202 140.636L908.015 138.433L911.559 136.386L916.369 133.607L919.913 131.56L923.443 129.52L926.987 127.473L928.819 126.414L935.61 133.11V135.093V140.622V147.703V152.937V159.513V164.833V171.064V175.596V177.143Z" fill="white"/><path d="M937.308 176.163L842.234 231.089V181.565L847.611 173.33L850.44 171.695M935.61 177.143V133.11L928.819 126.414L850.44 171.695M850.44 171.695V226.348M853.984 169.648V224.301M859.63 166.387V221.039M863.173 164.339V218.992M867.984 161.56V216.213M871.527 159.513V214.166M876.607 156.578V211.231M880.151 154.531V209.184M884.53 152.001V206.654M888.074 149.954V204.607M892.884 147.175V201.827M896.427 145.128V199.78M900.658 142.683V197.336M904.202 140.636V195.289M908.015 138.433V193.086M911.559 136.386V191.038M916.369 133.607V188.259M919.913 131.56V186.212M923.443 129.52V184.173M926.987 127.473V182.125M935.61 135.093L842.234 186.212M935.61 140.622L842.234 191.741M935.61 147.703L842.234 198.822M935.61 152.937L842.234 204.487M935.61 159.513L842.234 210.435M935.61 164.833L842.234 215.755M935.61 171.064L842.234 221.986M935.61 175.596L842.234 227.713" stroke="#111111" stroke-width="0.5"/><path d="M955.627 140.395C955.049 141.518 954.674 142.345 954.501 142.875C954.239 143.682 954.108 144.613 954.108 145.67C954.108 146.739 954.257 147.714 954.556 148.598C954.74 149.143 955.103 149.928 955.644 150.952H954.976C954.438 150.112 954.105 149.576 953.976 149.344C953.847 149.112 953.707 148.797 953.556 148.4C953.35 147.854 953.206 147.273 953.125 146.654C953.084 146.333 953.064 146.028 953.064 145.737C953.064 144.647 953.235 143.676 953.578 142.825C953.795 142.284 954.248 141.474 954.937 140.395H955.627ZM957.13 143.041V142.279C957.848 142.209 958.349 142.093 958.633 141.93C958.916 141.765 959.128 141.376 959.268 140.765H960.052V148.643H958.992V143.041H957.13ZM965.654 140.699C966.538 140.699 967.153 140.929 967.499 141.389C967.849 141.846 968.024 142.317 968.024 142.803H967.041C966.982 142.49 966.888 142.245 966.759 142.069C966.52 141.737 966.157 141.571 965.671 141.571C965.115 141.571 964.673 141.829 964.345 142.345C964.017 142.857 963.835 143.591 963.798 144.549C964.026 144.214 964.314 143.963 964.66 143.798C964.977 143.65 965.33 143.577 965.72 143.577C966.383 143.577 966.962 143.789 967.455 144.212C967.949 144.636 968.195 145.267 968.195 146.107C968.195 146.825 967.962 147.462 967.494 148.018C967.026 148.571 966.359 148.847 965.494 148.847C964.754 148.847 964.115 148.567 963.577 148.007C963.039 147.444 962.77 146.497 962.77 145.168C962.77 144.184 962.89 143.35 963.13 142.665C963.59 141.354 964.431 140.699 965.654 140.699ZM965.582 147.963C966.105 147.963 966.496 147.788 966.754 147.438C967.015 147.085 967.146 146.669 967.146 146.19C967.146 145.785 967.03 145.4 966.798 145.035C966.566 144.667 966.144 144.483 965.533 144.483C965.105 144.483 964.73 144.625 964.406 144.908C964.085 145.192 963.925 145.619 963.925 146.19C963.925 146.691 964.071 147.112 964.361 147.455C964.656 147.794 965.063 147.963 965.582 147.963ZM968.996 148.643C969.033 147.961 969.173 147.368 969.416 146.864C969.663 146.359 970.142 145.901 970.853 145.488L971.913 144.875C972.388 144.599 972.722 144.363 972.913 144.168C973.215 143.862 973.366 143.512 973.366 143.118C973.366 142.658 973.228 142.293 972.952 142.024C972.676 141.752 972.307 141.616 971.847 141.616C971.166 141.616 970.694 141.873 970.433 142.389C970.293 142.665 970.215 143.048 970.201 143.538H969.19C969.201 142.849 969.328 142.288 969.571 141.853C970.002 141.087 970.762 140.704 971.853 140.704C972.758 140.704 973.42 140.949 973.836 141.439C974.256 141.929 974.466 142.474 974.466 143.074C974.466 143.707 974.243 144.249 973.797 144.698C973.539 144.96 973.077 145.276 972.41 145.648L971.654 146.068C971.293 146.267 971.009 146.457 970.803 146.637C970.435 146.958 970.203 147.313 970.107 147.703H974.427V148.643H968.996ZM975.907 147.438H977.062V148.643H975.907V147.438ZM981.399 140.699C982.282 140.699 982.898 140.929 983.244 141.389C983.594 141.846 983.769 142.317 983.769 142.803H982.785C982.726 142.49 982.632 142.245 982.503 142.069C982.264 141.737 981.901 141.571 981.415 141.571C980.859 141.571 980.417 141.829 980.089 142.345C979.762 142.857 979.579 143.591 979.542 144.549C979.771 144.214 980.058 143.963 980.404 143.798C980.721 143.65 981.074 143.577 981.465 143.577C982.128 143.577 982.706 143.789 983.2 144.212C983.693 144.636 983.94 145.267 983.94 146.107C983.94 146.825 983.706 147.462 983.238 148.018C982.77 148.571 982.104 148.847 981.238 148.847C980.498 148.847 979.859 148.567 979.321 148.007C978.784 147.444 978.515 146.497 978.515 145.168C978.515 144.184 978.635 143.35 978.874 142.665C979.334 141.354 980.176 140.699 981.399 140.699ZM981.327 147.963C981.85 147.963 982.24 147.788 982.498 147.438C982.759 147.085 982.89 146.669 982.89 146.19C982.89 145.785 982.774 145.4 982.542 145.035C982.31 144.667 981.888 144.483 981.277 144.483C980.85 144.483 980.474 144.625 980.15 144.908C979.83 145.192 979.669 145.619 979.669 146.19C979.669 146.691 979.815 147.112 980.106 147.455C980.401 147.794 980.807 147.963 981.327 147.963ZM984.779 150.952C985.365 149.81 985.743 148.978 985.912 148.455C986.17 147.663 986.299 146.735 986.299 145.67C986.299 144.606 986.15 143.632 985.851 142.748C985.667 142.203 985.304 141.419 984.763 140.395H985.431C985.999 141.301 986.341 141.861 986.459 142.074C986.58 142.284 986.711 142.575 986.851 142.947C987.028 143.407 987.153 143.862 987.227 144.311C987.304 144.761 987.343 145.194 987.343 145.61C987.343 146.7 987.17 147.672 986.823 148.527C986.606 149.075 986.155 149.884 985.47 150.952H984.779Z" fill="white"/><path d="M963.101 129.368C963.984 129.368 964.6 129.599 964.946 130.059C965.296 130.516 965.471 130.987 965.471 131.473H964.487C964.428 131.16 964.334 130.915 964.205 130.739C963.966 130.407 963.603 130.241 963.117 130.241C962.561 130.241 962.119 130.499 961.791 131.015C961.464 131.527 961.281 132.261 961.244 133.219C961.473 132.884 961.76 132.633 962.106 132.468C962.423 132.32 962.776 132.247 963.167 132.247C963.83 132.247 964.408 132.458 964.902 132.882C965.395 133.306 965.642 133.937 965.642 134.777C965.642 135.495 965.408 136.132 964.94 136.688C964.472 137.241 963.806 137.517 962.94 137.517C962.2 137.517 961.561 137.237 961.023 136.677C960.486 136.114 960.217 135.167 960.217 133.838C960.217 132.854 960.337 132.02 960.576 131.335C961.036 130.024 961.878 129.368 963.101 129.368ZM963.029 136.633C963.552 136.633 963.942 136.458 964.2 136.108C964.461 135.755 964.592 135.338 964.592 134.86C964.592 134.455 964.476 134.07 964.244 133.705C964.012 133.337 963.59 133.153 962.979 133.153C962.552 133.153 962.176 133.294 961.852 133.578C961.532 133.862 961.371 134.289 961.371 134.86C961.371 135.361 961.517 135.782 961.808 136.125C962.103 136.464 962.509 136.633 963.029 136.633ZM969.15 129.402C970.174 129.402 970.914 129.823 971.371 130.667C971.724 131.319 971.901 132.212 971.901 133.346C971.901 134.421 971.741 135.311 971.42 136.014C970.956 137.023 970.198 137.528 969.144 137.528C968.194 137.528 967.487 137.115 967.023 136.29C966.636 135.602 966.443 134.677 966.443 133.517C966.443 132.619 966.559 131.847 966.791 131.203C967.225 130.002 968.012 129.402 969.15 129.402ZM969.139 136.622C969.654 136.622 970.065 136.394 970.371 135.937C970.676 135.48 970.829 134.63 970.829 133.385C970.829 132.486 970.719 131.748 970.498 131.169C970.277 130.588 969.848 130.297 969.211 130.297C968.625 130.297 968.196 130.573 967.923 131.125C967.654 131.674 967.52 132.484 967.52 133.556C967.52 134.362 967.607 135.011 967.78 135.501C968.045 136.248 968.498 136.622 969.139 136.622ZM973.354 136.108H974.508V137.312H973.354V136.108ZM979.276 134.512V130.926L976.74 134.512H979.276ZM979.292 137.312V135.379H975.823V134.407L979.447 129.38H980.287V134.512H981.452V135.379H980.287V137.312H979.292Z" fill="white"/><path d="M754.163 232.731C753.584 233.854 753.209 234.681 753.036 235.211C752.774 236.018 752.643 236.949 752.643 238.006C752.643 239.074 752.793 240.05 753.091 240.934C753.275 241.479 753.638 242.264 754.179 243.288H753.511C752.973 242.448 752.64 241.912 752.511 241.68C752.382 241.448 752.242 241.133 752.091 240.735C751.885 240.19 751.741 239.608 751.66 238.99C751.62 238.669 751.599 238.364 751.599 238.073C751.599 236.983 751.771 236.012 752.113 235.161C752.33 234.62 752.783 233.81 753.472 232.731H754.163ZM754.936 240.979C754.973 240.297 755.113 239.704 755.356 239.2C755.603 238.695 756.081 238.237 756.792 237.824L757.853 237.211C758.328 236.935 758.661 236.699 758.853 236.504C759.155 236.198 759.306 235.848 759.306 235.454C759.306 234.994 759.168 234.629 758.891 234.36C758.615 234.088 758.247 233.952 757.787 233.952C757.105 233.952 756.634 234.209 756.372 234.725C756.232 235.001 756.155 235.384 756.14 235.874H755.129C755.14 235.185 755.268 234.624 755.511 234.189C755.941 233.423 756.702 233.04 757.792 233.04C758.698 233.04 759.359 233.285 759.775 233.775C760.195 234.265 760.405 234.81 760.405 235.41C760.405 236.043 760.182 236.585 759.737 237.034C759.479 237.296 759.017 237.612 758.35 237.984L757.593 238.404C757.232 238.603 756.949 238.793 756.743 238.973C756.374 239.294 756.142 239.649 756.046 240.039H760.366V240.979H754.936ZM761.234 240.979C761.271 240.297 761.411 239.704 761.654 239.2C761.9 238.695 762.379 238.237 763.09 237.824L764.151 237.211C764.626 236.935 764.959 236.699 765.151 236.504C765.453 236.198 765.604 235.848 765.604 235.454C765.604 234.994 765.465 234.629 765.189 234.36C764.913 234.088 764.545 233.952 764.084 233.952C763.403 233.952 762.932 234.209 762.67 234.725C762.53 235.001 762.453 235.384 762.438 235.874H761.427C761.438 235.185 761.565 234.624 761.808 234.189C762.239 233.423 763 233.04 764.09 233.04C764.996 233.04 765.657 233.285 766.073 233.775C766.493 234.265 766.703 234.81 766.703 235.41C766.703 236.043 766.48 236.585 766.034 237.034C765.777 237.296 765.314 237.612 764.648 237.984L763.891 238.404C763.53 238.603 763.247 238.793 763.04 238.973C762.672 239.294 762.44 239.649 762.344 240.039H766.664V240.979H761.234ZM770.117 241.194C769.182 241.194 768.502 240.938 768.078 240.426C767.659 239.91 767.449 239.284 767.449 238.548H768.487C768.531 239.06 768.627 239.432 768.775 239.664C769.032 240.08 769.498 240.288 770.172 240.288C770.695 240.288 771.115 240.148 771.432 239.868C771.748 239.588 771.907 239.227 771.907 238.785C771.907 238.24 771.739 237.859 771.404 237.642C771.073 237.425 770.61 237.316 770.018 237.316C769.951 237.316 769.883 237.318 769.813 237.321C769.747 237.321 769.679 237.323 769.609 237.327V236.449C769.712 236.46 769.798 236.467 769.868 236.471C769.938 236.474 770.014 236.476 770.095 236.476C770.467 236.476 770.773 236.417 771.012 236.299C771.432 236.093 771.642 235.725 771.642 235.195C771.642 234.8 771.502 234.497 771.222 234.283C770.942 234.069 770.616 233.963 770.244 233.963C769.581 233.963 769.123 234.184 768.868 234.626C768.729 234.869 768.649 235.215 768.631 235.664H767.648C767.648 235.075 767.765 234.574 768.001 234.161C768.406 233.425 769.119 233.057 770.139 233.057C770.946 233.057 771.57 233.237 772.012 233.598C772.454 233.955 772.675 234.475 772.675 235.156C772.675 235.642 772.544 236.036 772.283 236.338C772.12 236.526 771.911 236.673 771.653 236.78C772.069 236.894 772.393 237.115 772.625 237.443C772.861 237.767 772.979 238.165 772.979 238.636C772.979 239.391 772.73 240.006 772.233 240.481C771.736 240.956 771.03 241.194 770.117 241.194ZM774.443 239.774H775.597V240.979H774.443V239.774ZM778.022 238.962C778.089 239.529 778.352 239.922 778.812 240.139C779.048 240.249 779.321 240.305 779.63 240.305C780.219 240.305 780.656 240.117 780.939 239.741C781.223 239.365 781.365 238.949 781.365 238.493C781.365 237.94 781.195 237.513 780.856 237.211C780.521 236.909 780.118 236.758 779.646 236.758C779.304 236.758 779.009 236.824 778.763 236.957C778.52 237.089 778.311 237.274 778.138 237.509L777.277 237.46L777.879 233.2H781.989V234.161H778.624L778.287 236.36C778.472 236.22 778.647 236.115 778.812 236.045C779.107 235.924 779.448 235.863 779.834 235.863C780.56 235.863 781.175 236.097 781.679 236.565C782.184 237.032 782.436 237.625 782.436 238.343C782.436 239.091 782.204 239.75 781.74 240.321C781.28 240.892 780.543 241.177 779.53 241.177C778.886 241.177 778.315 240.997 777.818 240.636C777.324 240.271 777.048 239.713 776.989 238.962H778.022ZM783.315 243.288C783.9 242.146 784.278 241.314 784.447 240.791C784.705 239.999 784.834 239.071 784.834 238.006C784.834 236.942 784.685 235.968 784.386 235.084C784.202 234.539 783.839 233.755 783.298 232.731H783.967C784.534 233.637 784.876 234.196 784.994 234.41C785.116 234.62 785.246 234.911 785.386 235.283C785.563 235.743 785.688 236.198 785.762 236.647C785.839 237.097 785.878 237.529 785.878 237.946C785.878 239.036 785.705 240.008 785.359 240.863C785.141 241.411 784.69 242.22 784.005 243.288H783.315Z" fill="white"/><path d="M761.404 225.052C761.842 225.052 762.185 224.931 762.431 224.688C762.678 224.441 762.801 224.148 762.801 223.809C762.801 223.515 762.684 223.244 762.448 222.997C762.212 222.75 761.853 222.627 761.371 222.627C760.892 222.627 760.546 222.75 760.332 222.997C760.118 223.244 760.012 223.533 760.012 223.864C760.012 224.236 760.15 224.527 760.426 224.737C760.702 224.947 761.028 225.052 761.404 225.052ZM761.464 228.969C761.925 228.969 762.306 228.846 762.608 228.599C762.914 228.348 763.067 227.976 763.067 227.483C763.067 226.971 762.91 226.582 762.597 226.317C762.284 226.052 761.883 225.92 761.393 225.92C760.918 225.92 760.529 226.056 760.227 226.328C759.929 226.597 759.78 226.971 759.78 227.45C759.78 227.862 759.916 228.219 760.188 228.521C760.465 228.82 760.89 228.969 761.464 228.969ZM760.05 225.433C759.774 225.316 759.559 225.177 759.404 225.019C759.113 224.724 758.967 224.341 758.967 223.87C758.967 223.281 759.181 222.774 759.608 222.351C760.036 221.927 760.641 221.715 761.426 221.715C762.185 221.715 762.779 221.916 763.21 222.318C763.641 222.715 763.857 223.181 763.857 223.715C763.857 224.209 763.731 224.608 763.481 224.914C763.341 225.087 763.124 225.257 762.829 225.422C763.157 225.573 763.415 225.746 763.602 225.942C763.952 226.31 764.127 226.789 764.127 227.378C764.127 228.074 763.893 228.665 763.426 229.151C762.958 229.634 762.297 229.875 761.442 229.875C760.673 229.875 760.021 229.667 759.487 229.251C758.956 228.831 758.691 228.223 758.691 227.428C758.691 226.96 758.805 226.557 759.034 226.218C759.262 225.875 759.601 225.614 760.05 225.433ZM767.701 225.052C768.14 225.052 768.482 224.931 768.729 224.688C768.976 224.441 769.099 224.148 769.099 223.809C769.099 223.515 768.981 223.244 768.746 222.997C768.51 222.75 768.151 222.627 767.668 222.627C767.19 222.627 766.843 222.75 766.63 222.997C766.416 223.244 766.309 223.533 766.309 223.864C766.309 224.236 766.447 224.527 766.724 224.737C767 224.947 767.326 225.052 767.701 225.052ZM767.762 228.969C768.223 228.969 768.604 228.846 768.906 228.599C769.211 228.348 769.364 227.976 769.364 227.483C769.364 226.971 769.208 226.582 768.895 226.317C768.582 226.052 768.18 225.92 767.69 225.92C767.215 225.92 766.827 226.056 766.525 226.328C766.226 226.597 766.077 226.971 766.077 227.45C766.077 227.862 766.214 228.219 766.486 228.521C766.762 228.82 767.188 228.969 767.762 228.969ZM766.348 225.433C766.072 225.316 765.856 225.177 765.702 225.019C765.411 224.724 765.265 224.341 765.265 223.87C765.265 223.281 765.479 222.774 765.906 222.351C766.333 221.927 766.939 221.715 767.724 221.715C768.482 221.715 769.077 221.916 769.508 222.318C769.939 222.715 770.154 223.181 770.154 223.715C770.154 224.209 770.029 224.608 769.779 224.914C769.639 225.087 769.421 225.257 769.127 225.422C769.455 225.573 769.712 225.746 769.9 225.942C770.25 226.31 770.425 226.789 770.425 227.378C770.425 228.074 770.191 228.665 769.723 229.151C769.256 229.634 768.595 229.875 767.74 229.875C766.97 229.875 766.319 229.667 765.785 229.251C765.254 228.831 764.989 228.223 764.989 227.428C764.989 226.96 765.103 226.557 765.332 226.218C765.56 225.875 765.899 225.614 766.348 225.433ZM771.889 228.444H773.044V229.648H771.889V228.444ZM777.132 221.738C778.155 221.738 778.896 222.159 779.352 223.003C779.706 223.655 779.883 224.548 779.883 225.682C779.883 226.757 779.722 227.647 779.402 228.35C778.938 229.359 778.179 229.864 777.126 229.864C776.176 229.864 775.469 229.451 775.005 228.626C774.618 227.938 774.425 227.013 774.425 225.853C774.425 224.955 774.541 224.183 774.773 223.539C775.207 222.338 775.994 221.738 777.132 221.738ZM777.12 228.958C777.636 228.958 778.047 228.73 778.352 228.273C778.658 227.816 778.811 226.965 778.811 225.721C778.811 224.822 778.7 224.084 778.479 223.505C778.259 222.923 777.829 222.633 777.192 222.633C776.607 222.633 776.178 222.909 775.905 223.461C775.636 224.01 775.502 224.82 775.502 225.892C775.502 226.698 775.588 227.347 775.762 227.836C776.027 228.584 776.48 228.958 777.12 228.958Z" fill="white"/><path d="M908.659 227.069C908.081 228.192 907.705 229.019 907.532 229.549C907.27 230.356 907.14 231.287 907.14 232.344C907.14 233.412 907.289 234.388 907.587 235.272C907.771 235.817 908.134 236.602 908.675 237.626H908.007C907.469 236.786 907.136 236.25 907.007 236.018C906.878 235.786 906.738 235.471 906.587 235.073C906.381 234.528 906.237 233.946 906.156 233.328C906.116 233.007 906.095 232.702 906.095 232.411C906.095 231.32 906.267 230.35 906.609 229.499C906.827 228.958 907.28 228.148 907.968 227.069H908.659ZM912.018 235.532C911.082 235.532 910.403 235.276 909.979 234.764C909.559 234.248 909.349 233.622 909.349 232.886H910.388C910.432 233.398 910.528 233.77 910.675 234.002C910.933 234.418 911.399 234.626 912.073 234.626C912.596 234.626 913.016 234.486 913.332 234.206C913.649 233.926 913.807 233.565 913.807 233.123C913.807 232.578 913.64 232.197 913.305 231.98C912.973 231.762 912.511 231.654 911.918 231.654C911.852 231.654 911.784 231.656 911.714 231.659C911.647 231.659 911.579 231.661 911.509 231.665V230.786C911.612 230.797 911.699 230.805 911.769 230.809C911.839 230.812 911.914 230.814 911.995 230.814C912.367 230.814 912.673 230.755 912.912 230.637C913.332 230.431 913.542 230.063 913.542 229.532C913.542 229.138 913.402 228.835 913.122 228.621C912.843 228.407 912.517 228.3 912.145 228.3C911.482 228.3 911.023 228.521 910.769 228.963C910.629 229.206 910.55 229.553 910.532 230.002H909.548C909.548 229.413 909.666 228.912 909.902 228.499C910.307 227.763 911.019 227.394 912.04 227.394C912.846 227.394 913.47 227.575 913.912 227.936C914.354 228.293 914.575 228.812 914.575 229.494C914.575 229.98 914.445 230.374 914.183 230.676C914.021 230.864 913.811 231.011 913.553 231.118C913.969 231.232 914.294 231.453 914.526 231.781C914.761 232.105 914.879 232.503 914.879 232.974C914.879 233.729 914.631 234.344 914.133 234.819C913.636 235.294 912.931 235.532 912.018 235.532ZM916.459 229.715V228.952C917.177 228.882 917.678 228.766 917.962 228.604C918.245 228.439 918.457 228.05 918.597 227.439H919.382V235.316H918.321V229.715H916.459ZM927.591 227.538V228.405C927.337 228.652 926.998 229.081 926.574 229.693C926.154 230.304 925.782 230.963 925.458 231.67C925.138 232.359 924.895 232.987 924.729 233.554C924.622 233.919 924.484 234.506 924.315 235.316H923.215C923.466 233.806 924.018 232.304 924.873 230.809C925.377 229.932 925.908 229.175 926.464 228.538H922.088V227.538H927.591ZM928.939 234.112H930.093V235.316H928.939V234.112ZM932.518 233.3C932.585 233.867 932.848 234.259 933.308 234.477C933.544 234.587 933.817 234.642 934.126 234.642C934.715 234.642 935.152 234.455 935.435 234.079C935.719 233.703 935.861 233.287 935.861 232.83C935.861 232.278 935.691 231.851 935.352 231.549C935.017 231.247 934.614 231.096 934.143 231.096C933.8 231.096 933.505 231.162 933.259 231.295C933.016 231.427 932.808 231.611 932.634 231.847L931.773 231.797L932.375 227.538H936.485V228.499H933.121L932.784 230.698C932.968 230.558 933.143 230.453 933.308 230.383C933.603 230.262 933.944 230.201 934.33 230.201C935.056 230.201 935.671 230.435 936.176 230.902C936.68 231.37 936.932 231.963 936.932 232.681C936.932 233.429 936.7 234.088 936.236 234.659C935.776 235.23 935.039 235.515 934.027 235.515C933.382 235.515 932.811 235.335 932.314 234.974C931.82 234.609 931.544 234.051 931.485 233.3H932.518ZM937.811 237.626C938.396 236.484 938.774 235.652 938.943 235.129C939.201 234.337 939.33 233.409 939.33 232.344C939.33 231.28 939.181 230.306 938.882 229.422C938.698 228.877 938.336 228.092 937.794 227.069H938.463C939.03 227.975 939.372 228.534 939.49 228.748C939.612 228.958 939.742 229.249 939.882 229.621C940.059 230.081 940.184 230.536 940.258 230.985C940.335 231.435 940.374 231.867 940.374 232.284C940.374 233.374 940.201 234.346 939.855 235.2C939.637 235.749 939.186 236.558 938.501 237.626H937.811Z" fill="white"/><path d="M910.667 218.383V217.62C911.385 217.55 911.886 217.434 912.169 217.272C912.453 217.107 912.665 216.718 912.804 216.107H913.589V223.984H912.528V218.383H910.667ZM916.235 223.984C916.272 223.303 916.412 222.71 916.655 222.206C916.902 221.701 917.38 221.242 918.091 220.83L919.152 220.217C919.627 219.941 919.96 219.705 920.152 219.51C920.454 219.204 920.605 218.854 920.605 218.46C920.605 218 920.467 217.635 920.191 217.366C919.914 217.094 919.546 216.957 919.086 216.957C918.404 216.957 917.933 217.215 917.671 217.731C917.531 218.007 917.454 218.39 917.439 218.88H916.428C916.439 218.191 916.567 217.63 916.81 217.195C917.241 216.429 918.001 216.046 919.091 216.046C919.997 216.046 920.658 216.291 921.074 216.781C921.494 217.27 921.704 217.816 921.704 218.416C921.704 219.049 921.481 219.591 921.036 220.04C920.778 220.301 920.316 220.618 919.649 220.99L918.892 221.41C918.531 221.609 918.248 221.799 918.042 221.979C917.673 222.299 917.441 222.655 917.345 223.045H921.666V223.984H916.235ZM923.577 221.968C923.643 222.535 923.907 222.927 924.367 223.145C924.603 223.255 924.875 223.31 925.185 223.31C925.774 223.31 926.21 223.123 926.494 222.747C926.777 222.371 926.919 221.955 926.919 221.498C926.919 220.946 926.75 220.519 926.411 220.217C926.076 219.915 925.673 219.764 925.201 219.764C924.859 219.764 924.564 219.83 924.317 219.963C924.074 220.095 923.866 220.279 923.693 220.515L922.831 220.465L923.433 216.206H927.543V217.167H924.179L923.842 219.366C924.026 219.226 924.201 219.121 924.367 219.051C924.662 218.93 925.002 218.869 925.389 218.869C926.114 218.869 926.73 219.103 927.234 219.57C927.739 220.038 927.991 220.631 927.991 221.349C927.991 222.097 927.759 222.756 927.295 223.327C926.834 223.898 926.098 224.183 925.085 224.183C924.441 224.183 923.87 224.003 923.373 223.642C922.879 223.277 922.603 222.719 922.544 221.968H923.577ZM929.444 222.78H930.598V223.984H929.444V222.78ZM934.686 216.074C935.71 216.074 936.451 216.495 936.907 217.339C937.261 217.99 937.438 218.884 937.438 220.018C937.438 221.093 937.277 221.983 936.957 222.686C936.493 223.695 935.734 224.2 934.681 224.2C933.731 224.2 933.024 223.787 932.56 222.962C932.173 222.274 931.979 221.349 931.979 220.189C931.979 219.291 932.095 218.519 932.328 217.874C932.762 216.674 933.548 216.074 934.686 216.074ZM934.675 223.294C935.191 223.294 935.602 223.065 935.907 222.609C936.213 222.152 936.366 221.301 936.366 220.057C936.366 219.158 936.255 218.42 936.034 217.841C935.813 217.259 935.384 216.968 934.747 216.968C934.162 216.968 933.733 217.245 933.46 217.797C933.191 218.346 933.057 219.156 933.057 220.228C933.057 221.034 933.143 221.683 933.316 222.172C933.582 222.92 934.035 223.294 934.675 223.294Z" fill="white"/><path d="M750.971 6.16406V4.83789C751.586 4.81055 752.017 4.76953 752.263 4.71484C752.655 4.62826 752.974 4.45508 753.22 4.19531C753.388 4.01758 753.516 3.7806 753.603 3.48438C753.653 3.30664 753.678 3.17448 753.678 3.08789H755.298V13H753.302V6.16406H750.971ZM760.22 8.13965C760.22 9.27897 760.313 10.1517 760.5 10.7578C760.687 11.3594 761.07 11.6602 761.648 11.6602C762.227 11.6602 762.605 11.3594 762.783 10.7578C762.965 10.1517 763.057 9.27897 763.057 8.13965C763.057 6.94564 762.965 6.06152 762.783 5.4873C762.605 4.91309 762.227 4.62598 761.648 4.62598C761.07 4.62598 760.687 4.91309 760.5 5.4873C760.313 6.06152 760.22 6.94564 760.22 8.13965ZM761.648 3.01953C762.911 3.01953 763.795 3.46387 764.301 4.35254C764.811 5.24121 765.066 6.50358 765.066 8.13965C765.066 9.77572 764.811 11.0358 764.301 11.9199C763.795 12.804 762.911 13.2461 761.648 13.2461C760.386 13.2461 759.5 12.804 758.989 11.9199C758.483 11.0358 758.23 9.77572 758.23 8.13965C758.23 6.50358 758.483 5.24121 758.989 4.35254C759.5 3.46387 760.386 3.01953 761.648 3.01953ZM766.393 14.6201C766.785 14.5107 767.072 14.3285 767.254 14.0732C767.441 13.818 767.548 13.4603 767.575 13H766.393V10.9629H768.498V12.7266C768.498 13.0365 768.457 13.36 768.375 13.6973C768.293 14.0345 768.14 14.3262 767.917 14.5723C767.675 14.8366 767.391 15.0348 767.062 15.167C766.739 15.3037 766.516 15.3721 766.393 15.3721V14.6201ZM769.92 13C769.938 12.2891 770.091 11.6396 770.378 11.0518C770.656 10.391 771.312 9.69141 772.347 8.95312C773.244 8.31055 773.826 7.85026 774.09 7.57227C774.495 7.13932 774.698 6.66536 774.698 6.15039C774.698 5.73112 774.582 5.38249 774.35 5.10449C774.117 4.8265 773.785 4.6875 773.352 4.6875C772.759 4.6875 772.356 4.90853 772.142 5.35059C772.019 5.60579 771.946 6.01139 771.923 6.56738H770.029C770.061 5.72428 770.214 5.04297 770.487 4.52344C771.007 3.53451 771.93 3.04004 773.256 3.04004C774.304 3.04004 775.138 3.33171 775.758 3.91504C776.378 4.49382 776.688 5.26172 776.688 6.21875C776.688 6.95247 776.469 7.60417 776.031 8.17383C775.744 8.55208 775.272 8.97363 774.616 9.43848L773.837 9.99219C773.349 10.3385 773.014 10.5892 772.832 10.7441C772.654 10.8991 772.504 11.0791 772.381 11.2842H776.708V13H769.92ZM779.702 8.13965C779.702 9.27897 779.796 10.1517 779.982 10.7578C780.169 11.3594 780.552 11.6602 781.131 11.6602C781.71 11.6602 782.088 11.3594 782.266 10.7578C782.448 10.1517 782.539 9.27897 782.539 8.13965C782.539 6.94564 782.448 6.06152 782.266 5.4873C782.088 4.91309 781.71 4.62598 781.131 4.62598C780.552 4.62598 780.169 4.91309 779.982 5.4873C779.796 6.06152 779.702 6.94564 779.702 8.13965ZM781.131 3.01953C782.393 3.01953 783.277 3.46387 783.783 4.35254C784.294 5.24121 784.549 6.50358 784.549 8.13965C784.549 9.77572 784.294 11.0358 783.783 11.9199C783.277 12.804 782.393 13.2461 781.131 13.2461C779.868 13.2461 778.982 12.804 778.472 11.9199C777.966 11.0358 777.713 9.77572 777.713 8.13965C777.713 6.50358 777.966 5.24121 778.472 4.35254C778.982 3.46387 779.868 3.01953 781.131 3.01953ZM787.495 8.13965C787.495 9.27897 787.589 10.1517 787.775 10.7578C787.962 11.3594 788.345 11.6602 788.924 11.6602C789.503 11.6602 789.881 11.3594 790.059 10.7578C790.241 10.1517 790.332 9.27897 790.332 8.13965C790.332 6.94564 790.241 6.06152 790.059 5.4873C789.881 4.91309 789.503 4.62598 788.924 4.62598C788.345 4.62598 787.962 4.91309 787.775 5.4873C787.589 6.06152 787.495 6.94564 787.495 8.13965ZM788.924 3.01953C790.186 3.01953 791.07 3.46387 791.576 4.35254C792.087 5.24121 792.342 6.50358 792.342 8.13965C792.342 9.77572 792.087 11.0358 791.576 11.9199C791.07 12.804 790.186 13.2461 788.924 13.2461C787.661 13.2461 786.775 12.804 786.265 11.9199C785.759 11.0358 785.506 9.77572 785.506 8.13965C785.506 6.50358 785.759 5.24121 786.265 4.35254C786.775 3.46387 787.661 3.01953 788.924 3.01953ZM793.183 8.17383H797.106V10.0195H793.183V8.17383ZM800.422 13H798.474V2.92383H800.422V13ZM806.355 5.38477C807.335 5.38477 808.101 5.73796 808.652 6.44434C809.208 7.15072 809.486 8.06217 809.486 9.17871C809.486 10.3363 809.213 11.2956 808.666 12.0566C808.119 12.8177 807.356 13.1982 806.376 13.1982C805.761 13.1982 805.266 13.0752 804.893 12.8291C804.669 12.6833 804.428 12.4281 804.168 12.0635V13H802.261V2.9375H804.202V6.51953C804.448 6.17318 804.719 5.90885 805.016 5.72656C805.367 5.4987 805.813 5.38477 806.355 5.38477ZM805.856 11.5918C806.358 11.5918 806.747 11.389 807.025 10.9834C807.303 10.5778 807.442 10.0446 807.442 9.38379C807.442 8.85514 807.374 8.41764 807.237 8.07129C806.978 7.41504 806.499 7.08691 805.802 7.08691C805.095 7.08691 804.61 7.4082 804.346 8.05078C804.209 8.39258 804.141 8.83464 804.141 9.37695C804.141 10.015 804.282 10.5436 804.564 10.9629C804.847 11.3822 805.278 11.5918 805.856 11.5918ZM815.283 5.4668C815.643 4.62826 816.17 3.72591 816.862 2.75977H818.332L817.915 3.52539C817.341 4.57812 816.942 5.68099 816.719 6.83398C816.573 7.59049 816.5 8.41536 816.5 9.30859C816.5 10.7031 816.703 11.986 817.108 13.1572C817.345 13.8499 817.765 14.7386 818.366 15.8232H816.924L816.438 15.1602C816.124 14.7591 815.789 14.1621 815.434 13.3691C814.8 11.9518 814.483 10.5573 814.483 9.18555C814.483 7.93685 814.75 6.69727 815.283 5.4668ZM825.858 10.8672H824.737V13H822.83V10.8672H818.906V9.16504L822.55 3.14941H824.737V9.34277H825.858V10.8672ZM822.83 9.34277V5.06348L820.349 9.34277H822.83ZM827.137 14.6201C827.529 14.5107 827.816 14.3285 827.998 14.0732C828.185 13.818 828.292 13.4603 828.319 13H827.137V10.9629H829.242V12.7266C829.242 13.0365 829.201 13.36 829.119 13.6973C829.037 14.0345 828.884 14.3262 828.661 14.5723C828.42 14.8366 828.135 15.0348 827.807 15.167C827.483 15.3037 827.26 15.3721 827.137 15.3721V14.6201ZM832.619 9.8623C832.619 10.3955 832.763 10.8307 833.05 11.168C833.337 11.5052 833.701 11.6738 834.144 11.6738C834.576 11.6738 834.916 11.512 835.162 11.1885C835.413 10.8604 835.538 10.4365 835.538 9.91699C835.538 9.33822 835.397 8.89616 835.114 8.59082C834.832 8.28092 834.485 8.12598 834.075 8.12598C833.743 8.12598 833.449 8.22624 833.193 8.42676C832.811 8.72298 832.619 9.2015 832.619 9.8623ZM835.36 5.58301C835.36 5.4235 835.299 5.24805 835.176 5.05664C834.966 4.74674 834.649 4.5918 834.226 4.5918C833.592 4.5918 833.141 4.94727 832.872 5.6582C832.726 6.05013 832.626 6.62891 832.571 7.39453C832.813 7.10742 833.093 6.89779 833.412 6.76562C833.731 6.63346 834.096 6.56738 834.506 6.56738C835.385 6.56738 836.105 6.86589 836.666 7.46289C837.231 8.0599 837.514 8.82324 837.514 9.75293C837.514 10.6781 837.238 11.4938 836.687 12.2002C836.135 12.9066 835.278 13.2598 834.116 13.2598C832.868 13.2598 831.947 12.738 831.354 11.6943C830.894 10.8786 830.664 9.82585 830.664 8.53613C830.664 7.77962 830.696 7.16439 830.76 6.69043C830.874 5.84733 831.095 5.14551 831.423 4.58496C831.705 4.10645 832.075 3.72135 832.53 3.42969C832.991 3.13802 833.54 2.99219 834.178 2.99219C835.098 2.99219 835.832 3.22917 836.379 3.70312C836.926 4.17253 837.233 4.79915 837.302 5.58301H835.36ZM838.457 13C838.475 12.2891 838.628 11.6396 838.915 11.0518C839.193 10.391 839.849 9.69141 840.884 8.95312C841.782 8.31055 842.363 7.85026 842.627 7.57227C843.033 7.13932 843.235 6.66536 843.235 6.15039C843.235 5.73112 843.119 5.38249 842.887 5.10449C842.654 4.8265 842.322 4.6875 841.889 4.6875C841.296 4.6875 840.893 4.90853 840.679 5.35059C840.556 5.60579 840.483 6.01139 840.46 6.56738H838.566C838.598 5.72428 838.751 5.04297 839.024 4.52344C839.544 3.53451 840.467 3.04004 841.793 3.04004C842.841 3.04004 843.675 3.33171 844.295 3.91504C844.915 4.49382 845.225 5.26172 845.225 6.21875C845.225 6.95247 845.006 7.60417 844.568 8.17383C844.281 8.55208 843.81 8.97363 843.153 9.43848L842.374 9.99219C841.886 10.3385 841.551 10.5892 841.369 10.7441C841.191 10.8991 841.041 11.0791 840.918 11.2842H845.245V13H838.457ZM853.195 4.74219C852.904 5.0293 852.498 5.54199 851.979 6.28027C851.459 7.014 851.024 7.77279 850.673 8.55664C850.395 9.17188 850.144 9.92383 849.921 10.8125C849.698 11.7012 849.586 12.4303 849.586 13H847.562C847.622 11.2227 848.205 9.37467 849.312 7.45605C850.028 6.2666 850.627 5.43717 851.11 4.96777H846.168L846.195 3.21777H853.195V4.74219ZM853.927 8.17383H857.851V10.0195H853.927V8.17383ZM859.156 2.95801H861.07V8.38574L863.497 5.58301H865.91L863.306 8.43359L866.013 13H863.661L861.877 9.81445L861.07 10.6553V13H859.156V2.95801ZM870.169 11.4004C870.625 11.4004 871.01 11.2295 871.324 10.8877C871.639 10.5413 871.796 9.99219 871.796 9.24023C871.796 8.53385 871.646 7.99609 871.345 7.62695C871.049 7.25781 870.65 7.07324 870.148 7.07324C869.465 7.07324 868.993 7.39453 868.733 8.03711C868.597 8.37891 868.528 8.80046 868.528 9.30176C868.528 9.7347 868.601 10.1198 868.747 10.457C869.011 11.0859 869.485 11.4004 870.169 11.4004ZM869.684 5.37109C870.057 5.37109 870.383 5.42806 870.661 5.54199C871.135 5.73796 871.518 6.09798 871.81 6.62207V5.54883H873.703V12.6172C873.703 13.5788 873.541 14.3034 873.218 14.791C872.662 15.6296 871.595 16.0488 870.019 16.0488C869.066 16.0488 868.289 15.862 867.688 15.4883C867.086 15.1146 866.753 14.5563 866.689 13.8135H868.809C868.863 14.0413 868.952 14.2054 869.075 14.3057C869.285 14.4834 869.638 14.5723 870.135 14.5723C870.837 14.5723 871.306 14.3376 871.543 13.8682C871.698 13.5674 871.775 13.0615 871.775 12.3506V11.8721C871.589 12.1911 871.388 12.4303 871.174 12.5898C870.786 12.8861 870.283 13.0342 869.663 13.0342C868.706 13.0342 867.94 12.6992 867.366 12.0293C866.797 11.3548 866.512 10.4434 866.512 9.29492C866.512 8.1875 866.787 7.25781 867.339 6.50586C867.89 5.74935 868.672 5.37109 869.684 5.37109ZM876.267 2.75977C876.959 3.72591 877.486 4.62826 877.846 5.4668C878.379 6.69727 878.646 7.93685 878.646 9.18555C878.646 10.5573 878.329 11.9518 877.695 13.3691C877.34 14.1621 877.005 14.7591 876.69 15.1602L876.205 15.8232H874.763C875.364 14.7386 875.784 13.8499 876.021 13.1572C876.426 11.986 876.629 10.7031 876.629 9.30859C876.629 8.41536 876.556 7.59049 876.41 6.83398C876.187 5.68099 875.788 4.57812 875.214 3.52539L874.797 2.75977H876.267ZM890.923 2.92383H893.951V13H891.989V6.18457C891.989 5.98861 891.992 5.71517 891.996 5.36426C892.001 5.00879 892.003 4.73535 892.003 4.54395L890.096 13H888.052L886.158 4.54395C886.158 4.73535 886.16 5.00879 886.165 5.36426C886.17 5.71517 886.172 5.98861 886.172 6.18457V13H884.21V2.92383H887.272L889.104 10.8467L890.923 2.92383ZM902.681 6.06836C902.521 5.38021 902.132 4.89941 901.512 4.62598C901.165 4.47559 900.78 4.40039 900.356 4.40039C899.545 4.40039 898.878 4.70801 898.354 5.32324C897.834 5.93392 897.574 6.85449 897.574 8.08496C897.574 9.32454 897.857 10.2018 898.422 10.7168C898.987 11.2318 899.63 11.4893 900.35 11.4893C901.056 11.4893 901.635 11.2865 902.086 10.8809C902.537 10.4707 902.815 9.93522 902.92 9.27441H900.589V7.59277H904.786V13H903.392L903.18 11.7422C902.774 12.2207 902.41 12.5579 902.086 12.7539C901.53 13.0957 900.846 13.2666 900.035 13.2666C898.7 13.2666 897.606 12.804 896.754 11.8789C895.865 10.9492 895.421 9.67773 895.421 8.06445C895.421 6.43294 895.87 5.125 896.768 4.14062C897.665 3.15625 898.853 2.66406 900.329 2.66406C901.61 2.66406 902.637 2.98991 903.412 3.6416C904.191 4.28874 904.638 5.09766 904.752 6.06836H902.681ZM908.177 2.92383L909.51 8.69336L909.797 10.2998L910.091 8.72754L911.226 2.92383H913.447L914.644 8.69336L914.951 10.2998L915.259 8.75488L916.605 2.92383H918.745L915.908 13H913.898L912.682 7.10742L912.326 5.15918L911.971 7.10742L910.754 13H908.799L905.941 2.92383H908.177ZM919.6 4.04492L921.028 4.50977V2.8623H922.211V4.50977L923.64 4.04492L923.961 5.06348L922.505 5.51465L923.455 6.875L922.58 7.49707L921.63 6.21191L920.652 7.49707L919.777 6.875L920.734 5.51465L919.278 5.06348L919.6 4.04492ZM752.283 26.958C752.283 27.3545 752.347 27.6826 752.475 27.9424C752.712 28.4209 753.142 28.6602 753.767 28.6602C754.149 28.6602 754.482 28.5303 754.765 28.2705C755.052 28.0062 755.195 27.6279 755.195 27.1357C755.195 26.484 754.931 26.0488 754.402 25.8301C754.102 25.707 753.628 25.6455 752.98 25.6455V24.251C753.614 24.2419 754.056 24.1803 754.307 24.0664C754.74 23.875 754.956 23.4876 754.956 22.9043C754.956 22.526 754.844 22.2184 754.621 21.9814C754.402 21.7445 754.092 21.626 753.691 21.626C753.231 21.626 752.892 21.7718 752.673 22.0635C752.459 22.3551 752.356 22.7448 752.365 23.2324H750.547C750.565 22.7402 750.649 22.2731 750.8 21.8311C750.959 21.4437 751.21 21.0859 751.552 20.7578C751.807 20.5254 752.11 20.3477 752.461 20.2246C752.812 20.1016 753.243 20.04 753.753 20.04C754.701 20.04 755.464 20.2861 756.043 20.7783C756.626 21.266 756.918 21.9222 756.918 22.7471C756.918 23.3304 756.745 23.8226 756.398 24.2236C756.18 24.4743 755.952 24.6452 755.715 24.7363C755.893 24.7363 756.148 24.889 756.48 25.1943C756.977 25.6546 757.226 26.2835 757.226 27.0811C757.226 27.9196 756.934 28.6579 756.351 29.2959C755.772 29.9294 754.913 30.2461 753.773 30.2461C752.37 30.2461 751.395 29.7881 750.848 28.8721C750.561 28.3844 750.401 27.7464 750.369 26.958H752.283ZM760.186 27.1221C760.186 27.6097 760.311 27.988 760.562 28.2568C760.817 28.5257 761.168 28.6602 761.614 28.6602C762.061 28.6602 762.41 28.5257 762.66 28.2568C762.915 27.988 763.043 27.6097 763.043 27.1221C763.043 26.6162 762.913 26.2334 762.653 25.9736C762.398 25.7093 762.052 25.5771 761.614 25.5771C761.177 25.5771 760.828 25.7093 760.568 25.9736C760.313 26.2334 760.186 26.6162 760.186 27.1221ZM758.162 27.252C758.162 26.696 758.287 26.1924 758.538 25.7412C758.793 25.29 759.165 24.9505 759.652 24.7227C759.174 24.4036 758.862 24.0596 758.716 23.6904C758.575 23.3167 758.504 22.9681 758.504 22.6445C758.504 21.9245 758.775 21.3115 759.317 20.8057C759.86 20.2952 760.625 20.04 761.614 20.04C762.603 20.04 763.369 20.2952 763.911 20.8057C764.453 21.3115 764.725 21.9245 764.725 22.6445C764.725 22.9681 764.652 23.3167 764.506 23.6904C764.365 24.0596 764.055 24.3809 763.576 24.6543C764.064 24.9277 764.431 25.29 764.677 25.7412C764.923 26.1924 765.046 26.696 765.046 27.252C765.046 28.0859 764.736 28.7969 764.116 29.3848C763.501 29.9681 762.64 30.2598 761.532 30.2598C760.425 30.2598 759.586 29.9681 759.017 29.3848C758.447 28.7969 758.162 28.0859 758.162 27.252ZM760.363 22.8633C760.363 23.2233 760.473 23.5173 760.691 23.7451C760.915 23.973 761.222 24.0869 761.614 24.0869C762.011 24.0869 762.316 23.973 762.53 23.7451C762.749 23.5173 762.858 23.2233 762.858 22.8633C762.858 22.4714 762.749 22.166 762.53 21.9473C762.316 21.724 762.011 21.6123 761.614 21.6123C761.222 21.6123 760.915 21.724 760.691 21.9473C760.473 22.166 760.363 22.4714 760.363 22.8633ZM766.557 23.1641V21.8379C767.172 21.8105 767.603 21.7695 767.849 21.7148C768.241 21.6283 768.56 21.4551 768.806 21.1953C768.974 21.0176 769.102 20.7806 769.188 20.4844C769.239 20.3066 769.264 20.1745 769.264 20.0879H770.884V30H768.888V23.1641H766.557ZM780.933 19.8213C781.056 19.8213 781.167 19.8258 781.268 19.835C781.368 19.8395 781.505 19.8486 781.678 19.8623V21.4482C781.568 21.4346 781.384 21.4255 781.124 21.4209C780.869 21.4118 780.691 21.4688 780.591 21.5918C780.495 21.7103 780.447 21.8424 780.447 21.9883C780.447 22.1341 780.447 22.3438 780.447 22.6172H781.726V23.9912H780.447V30H778.506V23.9912H777.419V22.6172H778.485V22.1387C778.485 21.3411 778.62 20.792 778.889 20.4912C779.171 20.0446 779.853 19.8213 780.933 19.8213ZM782.081 24.0049V22.6172H783.12V20.5391H785.048V22.6172H786.258V24.0049H785.048V27.9424C785.048 28.2477 785.087 28.4391 785.164 28.5166C785.242 28.5895 785.479 28.626 785.875 28.626C785.934 28.626 785.996 28.626 786.06 28.626C786.128 28.6214 786.194 28.6169 786.258 28.6123V30.0684L785.335 30.1025C784.414 30.1344 783.785 29.9749 783.448 29.624C783.229 29.4007 783.12 29.0566 783.12 28.5918V24.0049H782.081ZM788.883 26.958C788.883 27.3545 788.947 27.6826 789.074 27.9424C789.311 28.4209 789.742 28.6602 790.366 28.6602C790.749 28.6602 791.082 28.5303 791.364 28.2705C791.651 28.0062 791.795 27.6279 791.795 27.1357C791.795 26.484 791.531 26.0488 791.002 25.8301C790.701 25.707 790.227 25.6455 789.58 25.6455V24.251C790.214 24.2419 790.656 24.1803 790.906 24.0664C791.339 23.875 791.556 23.4876 791.556 22.9043C791.556 22.526 791.444 22.2184 791.221 21.9814C791.002 21.7445 790.692 21.626 790.291 21.626C789.831 21.626 789.491 21.7718 789.272 22.0635C789.058 22.3551 788.956 22.7448 788.965 23.2324H787.146C787.165 22.7402 787.249 22.2731 787.399 21.8311C787.559 21.4437 787.81 21.0859 788.151 20.7578C788.407 20.5254 788.71 20.3477 789.061 20.2246C789.411 20.1016 789.842 20.04 790.353 20.04C791.3 20.04 792.064 20.2861 792.643 20.7783C793.226 21.266 793.518 21.9222 793.518 22.7471C793.518 23.3304 793.344 23.8226 792.998 24.2236C792.779 24.4743 792.551 24.6452 792.314 24.7363C792.492 24.7363 792.747 24.889 793.08 25.1943C793.577 25.6546 793.825 26.2835 793.825 27.0811C793.825 27.9196 793.534 28.6579 792.95 29.2959C792.371 29.9294 791.512 30.2461 790.373 30.2461C788.969 30.2461 787.994 29.7881 787.447 28.8721C787.16 28.3844 787.001 27.7464 786.969 26.958H788.883ZM799.697 22.4668C800.057 21.6283 800.584 20.7259 801.276 19.7598H802.746L802.329 20.5254C801.755 21.5781 801.356 22.681 801.133 23.834C800.987 24.5905 800.914 25.4154 800.914 26.3086C800.914 27.7031 801.117 28.986 801.522 30.1572C801.759 30.8499 802.179 31.7386 802.78 32.8232H801.338L800.853 32.1602C800.538 31.7591 800.203 31.1621 799.848 30.3691C799.214 28.9518 798.897 27.5573 798.897 26.1855C798.897 24.9368 799.164 23.6973 799.697 22.4668ZM803.922 23.1641V21.8379C804.537 21.8105 804.968 21.7695 805.214 21.7148C805.606 21.6283 805.925 21.4551 806.171 21.1953C806.34 21.0176 806.467 20.7806 806.554 20.4844C806.604 20.3066 806.629 20.1745 806.629 20.0879H808.249V30H806.253V23.1641H803.922ZM813.171 25.1396C813.171 26.279 813.264 27.1517 813.451 27.7578C813.638 28.3594 814.021 28.6602 814.6 28.6602C815.178 28.6602 815.557 28.3594 815.734 27.7578C815.917 27.1517 816.008 26.279 816.008 25.1396C816.008 23.9456 815.917 23.0615 815.734 22.4873C815.557 21.9131 815.178 21.626 814.6 21.626C814.021 21.626 813.638 21.9131 813.451 22.4873C813.264 23.0615 813.171 23.9456 813.171 25.1396ZM814.6 20.0195C815.862 20.0195 816.746 20.4639 817.252 21.3525C817.762 22.2412 818.018 23.5036 818.018 25.1396C818.018 26.7757 817.762 28.0358 817.252 28.9199C816.746 29.804 815.862 30.2461 814.6 30.2461C813.337 30.2461 812.451 29.804 811.94 28.9199C811.435 28.0358 811.182 26.7757 811.182 25.1396C811.182 23.5036 811.435 22.2412 811.94 21.3525C812.451 20.4639 813.337 20.0195 814.6 20.0195ZM819.412 27.9629H821.483V30H819.412V27.9629ZM824.826 27.1221C824.826 27.6097 824.951 27.988 825.202 28.2568C825.457 28.5257 825.808 28.6602 826.255 28.6602C826.701 28.6602 827.05 28.5257 827.301 28.2568C827.556 27.988 827.684 27.6097 827.684 27.1221C827.684 26.6162 827.554 26.2334 827.294 25.9736C827.039 25.7093 826.692 25.5771 826.255 25.5771C825.817 25.5771 825.469 25.7093 825.209 25.9736C824.954 26.2334 824.826 26.6162 824.826 27.1221ZM822.803 27.252C822.803 26.696 822.928 26.1924 823.179 25.7412C823.434 25.29 823.805 24.9505 824.293 24.7227C823.814 24.4036 823.502 24.0596 823.356 23.6904C823.215 23.3167 823.145 22.9681 823.145 22.6445C823.145 21.9245 823.416 21.3115 823.958 20.8057C824.5 20.2952 825.266 20.04 826.255 20.04C827.244 20.04 828.009 20.2952 828.552 20.8057C829.094 21.3115 829.365 21.9245 829.365 22.6445C829.365 22.9681 829.292 23.3167 829.146 23.6904C829.005 24.0596 828.695 24.3809 828.217 24.6543C828.704 24.9277 829.071 25.29 829.317 25.7412C829.563 26.1924 829.687 26.696 829.687 27.252C829.687 28.0859 829.377 28.7969 828.757 29.3848C828.142 29.9681 827.28 30.2598 826.173 30.2598C825.065 30.2598 824.227 29.9681 823.657 29.3848C823.088 28.7969 822.803 28.0859 822.803 27.252ZM825.004 22.8633C825.004 23.2233 825.113 23.5173 825.332 23.7451C825.555 23.973 825.863 24.0869 826.255 24.0869C826.651 24.0869 826.957 23.973 827.171 23.7451C827.39 23.5173 827.499 23.2233 827.499 22.8633C827.499 22.4714 827.39 22.166 827.171 21.9473C826.957 21.724 826.651 21.6123 826.255 21.6123C825.863 21.6123 825.555 21.724 825.332 21.9473C825.113 22.166 825.004 22.4714 825.004 22.8633ZM843.358 22.3848C843.687 22.3848 844.01 22.4486 844.329 22.5762C844.648 22.7038 844.938 22.9271 845.197 23.2461C845.407 23.5059 845.548 23.8249 845.621 24.2031C845.667 24.4538 845.689 24.8206 845.689 25.3037L845.676 30H843.68V25.2559C843.68 24.9733 843.634 24.7409 843.543 24.5586C843.37 24.2122 843.051 24.0391 842.586 24.0391C842.048 24.0391 841.677 24.2624 841.472 24.709C841.367 24.946 841.314 25.2308 841.314 25.5635V30H839.353V25.5635C839.353 25.1214 839.307 24.8001 839.216 24.5996C839.052 24.2396 838.73 24.0596 838.252 24.0596C837.696 24.0596 837.322 24.2396 837.131 24.5996C837.026 24.8047 836.974 25.11 836.974 25.5156V30H834.998V22.5625H836.892V23.6494C837.133 23.262 837.361 22.9863 837.575 22.8223C837.953 22.5306 838.443 22.3848 839.045 22.3848C839.615 22.3848 840.075 22.5101 840.426 22.7607C840.708 22.9932 840.923 23.2917 841.068 23.6562C841.324 23.2188 841.64 22.8975 842.019 22.6924C842.42 22.4873 842.866 22.3848 843.358 22.3848ZM848.861 26.958C848.861 27.3545 848.925 27.6826 849.053 27.9424C849.29 28.4209 849.72 28.6602 850.345 28.6602C850.728 28.6602 851.06 28.5303 851.343 28.2705C851.63 28.0062 851.773 27.6279 851.773 27.1357C851.773 26.484 851.509 26.0488 850.98 25.8301C850.68 25.707 850.206 25.6455 849.559 25.6455V24.251C850.192 24.2419 850.634 24.1803 850.885 24.0664C851.318 23.875 851.534 23.4876 851.534 22.9043C851.534 22.526 851.423 22.2184 851.199 21.9814C850.98 21.7445 850.671 21.626 850.27 21.626C849.809 21.626 849.47 21.7718 849.251 22.0635C849.037 22.3551 848.934 22.7448 848.943 23.2324H847.125C847.143 22.7402 847.228 22.2731 847.378 21.8311C847.537 21.4437 847.788 21.0859 848.13 20.7578C848.385 20.5254 848.688 20.3477 849.039 20.2246C849.39 20.1016 849.821 20.04 850.331 20.04C851.279 20.04 852.042 20.2861 852.621 20.7783C853.204 21.266 853.496 21.9222 853.496 22.7471C853.496 23.3304 853.323 23.8226 852.977 24.2236C852.758 24.4743 852.53 24.6452 852.293 24.7363C852.471 24.7363 852.726 24.889 853.059 25.1943C853.555 25.6546 853.804 26.2835 853.804 27.0811C853.804 27.9196 853.512 28.6579 852.929 29.2959C852.35 29.9294 851.491 30.2461 850.352 30.2461C848.948 30.2461 847.973 29.7881 847.426 28.8721C847.139 28.3844 846.979 27.7464 846.947 26.958H848.861ZM856.019 19.7598C856.711 20.7259 857.238 21.6283 857.598 22.4668C858.131 23.6973 858.397 24.9368 858.397 26.1855C858.397 27.5573 858.081 28.9518 857.447 30.3691C857.092 31.1621 856.757 31.7591 856.442 32.1602L855.957 32.8232H854.515C855.116 31.7386 855.535 30.8499 855.772 30.1572C856.178 28.986 856.381 27.7031 856.381 26.3086C856.381 25.4154 856.308 24.5905 856.162 23.834C855.939 22.681 855.54 21.5781 854.966 20.5254L854.549 19.7598H856.019ZM864.338 22.4668C864.698 21.6283 865.224 20.7259 865.917 19.7598H867.387L866.97 20.5254C866.396 21.5781 865.997 22.681 865.773 23.834C865.628 24.5905 865.555 25.4154 865.555 26.3086C865.555 27.7031 865.757 28.986 866.163 30.1572C866.4 30.8499 866.819 31.7386 867.421 32.8232H865.979L865.493 32.1602C865.179 31.7591 864.844 31.1621 864.488 30.3691C863.855 28.9518 863.538 27.5573 863.538 26.1855C863.538 24.9368 863.805 23.6973 864.338 22.4668ZM868.658 19.9238H870.764V28.1885H875.754V30H868.658V19.9238ZM879.261 21.6738V28.25H881.202C882.196 28.25 882.888 27.7601 883.28 26.7803C883.494 26.2425 883.602 25.6022 883.602 24.8594C883.602 23.834 883.44 23.0479 883.116 22.501C882.797 21.9495 882.159 21.6738 881.202 21.6738H879.261ZM881.558 19.9238C882.182 19.9329 882.701 20.0059 883.116 20.1426C883.823 20.375 884.395 20.8011 884.832 21.4209C885.183 21.9222 885.422 22.4645 885.55 23.0479C885.677 23.6312 885.741 24.1872 885.741 24.7158C885.741 26.0557 885.472 27.1904 884.935 28.1201C884.205 29.3734 883.08 30 881.558 30H877.217V19.9238H881.558ZM886.589 25.1738H890.513V27.0195H886.589V25.1738ZM891.347 23.5742C891.347 22.5124 891.652 21.6533 892.263 20.9971C892.878 20.3363 893.675 20.0059 894.655 20.0059C896.164 20.0059 897.198 20.6735 897.759 22.0088C898.078 22.7653 898.237 23.7611 898.237 24.9961C898.237 26.1947 898.085 27.195 897.779 27.9971C897.196 29.5238 896.125 30.2871 894.566 30.2871C893.824 30.2871 893.156 30.0684 892.563 29.6309C891.971 29.1888 891.632 28.5462 891.545 27.7031H893.486C893.532 27.9948 893.655 28.2318 893.855 28.4141C894.056 28.5964 894.323 28.6875 894.655 28.6875C895.298 28.6875 895.749 28.332 896.009 27.6211C896.15 27.2292 896.239 26.6572 896.275 25.9053C896.098 26.1286 895.909 26.2995 895.708 26.418C895.343 26.6367 894.895 26.7461 894.361 26.7461C893.573 26.7461 892.873 26.4749 892.263 25.9326C891.652 25.3857 891.347 24.5996 891.347 23.5742ZM894.785 25.1602C895.054 25.1602 895.307 25.0827 895.544 24.9277C895.986 24.6452 896.207 24.1553 896.207 23.458C896.207 22.8975 896.075 22.4531 895.811 22.125C895.551 21.7969 895.193 21.6328 894.737 21.6328C894.405 21.6328 894.12 21.7262 893.883 21.9131C893.509 22.2048 893.322 22.6992 893.322 23.3965C893.322 23.9844 893.441 24.4264 893.678 24.7227C893.919 25.0143 894.288 25.1602 894.785 25.1602ZM900.37 19.7598C901.063 20.7259 901.589 21.6283 901.949 22.4668C902.482 23.6973 902.749 24.9368 902.749 26.1855C902.749 27.5573 902.432 28.9518 901.799 30.3691C901.443 31.1621 901.108 31.7591 900.794 32.1602L900.309 32.8232H898.866C899.468 31.7386 899.887 30.8499 900.124 30.1572C900.53 28.986 900.732 27.7031 900.732 26.3086C900.732 25.4154 900.66 24.5905 900.514 23.834C900.29 22.681 899.892 21.5781 899.317 20.5254L898.9 19.7598H900.37Z" fill="white"/><path d="M764.971 292.164V290.838C765.586 290.811 766.017 290.77 766.263 290.715C766.655 290.628 766.974 290.455 767.22 290.195C767.388 290.018 767.516 289.781 767.603 289.484C767.653 289.307 767.678 289.174 767.678 289.088H769.298V299H767.302V292.164H764.971ZM774.22 294.14C774.22 295.279 774.313 296.152 774.5 296.758C774.687 297.359 775.07 297.66 775.648 297.66C776.227 297.66 776.605 297.359 776.783 296.758C776.965 296.152 777.057 295.279 777.057 294.14C777.057 292.946 776.965 292.062 776.783 291.487C776.605 290.913 776.227 290.626 775.648 290.626C775.07 290.626 774.687 290.913 774.5 291.487C774.313 292.062 774.22 292.946 774.22 294.14ZM775.648 289.02C776.911 289.02 777.795 289.464 778.301 290.353C778.811 291.241 779.066 292.504 779.066 294.14C779.066 295.776 778.811 297.036 778.301 297.92C777.795 298.804 776.911 299.246 775.648 299.246C774.386 299.246 773.5 298.804 772.989 297.92C772.483 297.036 772.23 295.776 772.23 294.14C772.23 292.504 772.483 291.241 772.989 290.353C773.5 289.464 774.386 289.02 775.648 289.02ZM780.393 300.62C780.785 300.511 781.072 300.328 781.254 300.073C781.441 299.818 781.548 299.46 781.575 299H780.393V296.963H782.498V298.727C782.498 299.036 782.457 299.36 782.375 299.697C782.293 300.035 782.14 300.326 781.917 300.572C781.675 300.837 781.391 301.035 781.062 301.167C780.739 301.304 780.516 301.372 780.393 301.372V300.62ZM783.92 299C783.938 298.289 784.091 297.64 784.378 297.052C784.656 296.391 785.312 295.691 786.347 294.953C787.244 294.311 787.826 293.85 788.09 293.572C788.495 293.139 788.698 292.665 788.698 292.15C788.698 291.731 788.582 291.382 788.35 291.104C788.117 290.826 787.785 290.688 787.352 290.688C786.759 290.688 786.356 290.909 786.142 291.351C786.019 291.606 785.946 292.011 785.923 292.567H784.029C784.061 291.724 784.214 291.043 784.487 290.523C785.007 289.535 785.93 289.04 787.256 289.04C788.304 289.04 789.138 289.332 789.758 289.915C790.378 290.494 790.688 291.262 790.688 292.219C790.688 292.952 790.469 293.604 790.031 294.174C789.744 294.552 789.272 294.974 788.616 295.438L787.837 295.992C787.349 296.339 787.014 296.589 786.832 296.744C786.654 296.899 786.504 297.079 786.381 297.284H790.708V299H783.92ZM793.702 294.14C793.702 295.279 793.796 296.152 793.982 296.758C794.169 297.359 794.552 297.66 795.131 297.66C795.71 297.66 796.088 297.359 796.266 296.758C796.448 296.152 796.539 295.279 796.539 294.14C796.539 292.946 796.448 292.062 796.266 291.487C796.088 290.913 795.71 290.626 795.131 290.626C794.552 290.626 794.169 290.913 793.982 291.487C793.796 292.062 793.702 292.946 793.702 294.14ZM795.131 289.02C796.393 289.02 797.277 289.464 797.783 290.353C798.294 291.241 798.549 292.504 798.549 294.14C798.549 295.776 798.294 297.036 797.783 297.92C797.277 298.804 796.393 299.246 795.131 299.246C793.868 299.246 792.982 298.804 792.472 297.92C791.966 297.036 791.713 295.776 791.713 294.14C791.713 292.504 791.966 291.241 792.472 290.353C792.982 289.464 793.868 289.02 795.131 289.02ZM801.495 294.14C801.495 295.279 801.589 296.152 801.775 296.758C801.962 297.359 802.345 297.66 802.924 297.66C803.503 297.66 803.881 297.359 804.059 296.758C804.241 296.152 804.332 295.279 804.332 294.14C804.332 292.946 804.241 292.062 804.059 291.487C803.881 290.913 803.503 290.626 802.924 290.626C802.345 290.626 801.962 290.913 801.775 291.487C801.589 292.062 801.495 292.946 801.495 294.14ZM802.924 289.02C804.186 289.02 805.07 289.464 805.576 290.353C806.087 291.241 806.342 292.504 806.342 294.14C806.342 295.776 806.087 297.036 805.576 297.92C805.07 298.804 804.186 299.246 802.924 299.246C801.661 299.246 800.775 298.804 800.265 297.92C799.759 297.036 799.506 295.776 799.506 294.14C799.506 292.504 799.759 291.241 800.265 290.353C800.775 289.464 801.661 289.02 802.924 289.02ZM807.183 294.174H811.106V296.02H807.183V294.174ZM814.422 299H812.474V288.924H814.422V299ZM820.355 291.385C821.335 291.385 822.101 291.738 822.652 292.444C823.208 293.151 823.486 294.062 823.486 295.179C823.486 296.336 823.213 297.296 822.666 298.057C822.119 298.818 821.356 299.198 820.376 299.198C819.761 299.198 819.266 299.075 818.893 298.829C818.669 298.683 818.428 298.428 818.168 298.063V299H816.261V288.938H818.202V292.52C818.448 292.173 818.719 291.909 819.016 291.727C819.367 291.499 819.813 291.385 820.355 291.385ZM819.856 297.592C820.358 297.592 820.747 297.389 821.025 296.983C821.303 296.578 821.442 296.045 821.442 295.384C821.442 294.855 821.374 294.418 821.237 294.071C820.978 293.415 820.499 293.087 819.802 293.087C819.095 293.087 818.61 293.408 818.346 294.051C818.209 294.393 818.141 294.835 818.141 295.377C818.141 296.015 818.282 296.544 818.564 296.963C818.847 297.382 819.278 297.592 819.856 297.592ZM829.283 291.467C829.643 290.628 830.17 289.726 830.862 288.76H832.332L831.915 289.525C831.341 290.578 830.942 291.681 830.719 292.834C830.573 293.59 830.5 294.415 830.5 295.309C830.5 296.703 830.703 297.986 831.108 299.157C831.345 299.85 831.765 300.739 832.366 301.823H830.924L830.438 301.16C830.124 300.759 829.789 300.162 829.434 299.369C828.8 297.952 828.483 296.557 828.483 295.186C828.483 293.937 828.75 292.697 829.283 291.467ZM839.858 296.867H838.737V299H836.83V296.867H832.906V295.165L836.55 289.149H838.737V295.343H839.858V296.867ZM836.83 295.343V291.063L834.349 295.343H836.83ZM841.137 300.62C841.529 300.511 841.816 300.328 841.998 300.073C842.185 299.818 842.292 299.46 842.319 299H841.137V296.963H843.242V298.727C843.242 299.036 843.201 299.36 843.119 299.697C843.037 300.035 842.884 300.326 842.661 300.572C842.42 300.837 842.135 301.035 841.807 301.167C841.483 301.304 841.26 301.372 841.137 301.372V300.62ZM846.619 295.862C846.619 296.396 846.763 296.831 847.05 297.168C847.337 297.505 847.701 297.674 848.144 297.674C848.576 297.674 848.916 297.512 849.162 297.188C849.413 296.86 849.538 296.437 849.538 295.917C849.538 295.338 849.397 294.896 849.114 294.591C848.832 294.281 848.485 294.126 848.075 294.126C847.743 294.126 847.449 294.226 847.193 294.427C846.811 294.723 846.619 295.201 846.619 295.862ZM849.36 291.583C849.36 291.424 849.299 291.248 849.176 291.057C848.966 290.747 848.649 290.592 848.226 290.592C847.592 290.592 847.141 290.947 846.872 291.658C846.726 292.05 846.626 292.629 846.571 293.395C846.813 293.107 847.093 292.898 847.412 292.766C847.731 292.633 848.096 292.567 848.506 292.567C849.385 292.567 850.105 292.866 850.666 293.463C851.231 294.06 851.514 294.823 851.514 295.753C851.514 296.678 851.238 297.494 850.687 298.2C850.135 298.907 849.278 299.26 848.116 299.26C846.868 299.26 845.947 298.738 845.354 297.694C844.894 296.879 844.664 295.826 844.664 294.536C844.664 293.78 844.696 293.164 844.76 292.69C844.874 291.847 845.095 291.146 845.423 290.585C845.705 290.106 846.075 289.721 846.53 289.43C846.991 289.138 847.54 288.992 848.178 288.992C849.098 288.992 849.832 289.229 850.379 289.703C850.926 290.173 851.233 290.799 851.302 291.583H849.36ZM852.457 299C852.475 298.289 852.628 297.64 852.915 297.052C853.193 296.391 853.849 295.691 854.884 294.953C855.782 294.311 856.363 293.85 856.627 293.572C857.033 293.139 857.235 292.665 857.235 292.15C857.235 291.731 857.119 291.382 856.887 291.104C856.654 290.826 856.322 290.688 855.889 290.688C855.296 290.688 854.893 290.909 854.679 291.351C854.556 291.606 854.483 292.011 854.46 292.567H852.566C852.598 291.724 852.751 291.043 853.024 290.523C853.544 289.535 854.467 289.04 855.793 289.04C856.841 289.04 857.675 289.332 858.295 289.915C858.915 290.494 859.225 291.262 859.225 292.219C859.225 292.952 859.006 293.604 858.568 294.174C858.281 294.552 857.81 294.974 857.153 295.438L856.374 295.992C855.886 296.339 855.551 296.589 855.369 296.744C855.191 296.899 855.041 297.079 854.918 297.284H859.245V299H852.457ZM867.195 290.742C866.904 291.029 866.498 291.542 865.979 292.28C865.459 293.014 865.024 293.773 864.673 294.557C864.395 295.172 864.144 295.924 863.921 296.812C863.698 297.701 863.586 298.43 863.586 299H861.562C861.622 297.223 862.205 295.375 863.312 293.456C864.028 292.267 864.627 291.437 865.11 290.968H860.168L860.195 289.218H867.195V290.742ZM867.927 294.174H871.851V296.02H867.927V294.174ZM873.156 288.958H875.07V294.386L877.497 291.583H879.91L877.306 294.434L880.013 299H877.661L875.877 295.814L875.07 296.655V299H873.156V288.958ZM884.169 297.4C884.625 297.4 885.01 297.229 885.324 296.888C885.639 296.541 885.796 295.992 885.796 295.24C885.796 294.534 885.646 293.996 885.345 293.627C885.049 293.258 884.65 293.073 884.148 293.073C883.465 293.073 882.993 293.395 882.733 294.037C882.597 294.379 882.528 294.8 882.528 295.302C882.528 295.735 882.601 296.12 882.747 296.457C883.011 297.086 883.485 297.4 884.169 297.4ZM883.684 291.371C884.057 291.371 884.383 291.428 884.661 291.542C885.135 291.738 885.518 292.098 885.81 292.622V291.549H887.703V298.617C887.703 299.579 887.541 300.303 887.218 300.791C886.662 301.63 885.595 302.049 884.019 302.049C883.066 302.049 882.289 301.862 881.688 301.488C881.086 301.115 880.753 300.556 880.689 299.813H882.809C882.863 300.041 882.952 300.205 883.075 300.306C883.285 300.483 883.638 300.572 884.135 300.572C884.837 300.572 885.306 300.338 885.543 299.868C885.698 299.567 885.775 299.062 885.775 298.351V297.872C885.589 298.191 885.388 298.43 885.174 298.59C884.786 298.886 884.283 299.034 883.663 299.034C882.706 299.034 881.94 298.699 881.366 298.029C880.797 297.355 880.512 296.443 880.512 295.295C880.512 294.188 880.787 293.258 881.339 292.506C881.89 291.749 882.672 291.371 883.684 291.371ZM890.267 288.76C890.959 289.726 891.486 290.628 891.846 291.467C892.379 292.697 892.646 293.937 892.646 295.186C892.646 296.557 892.329 297.952 891.695 299.369C891.34 300.162 891.005 300.759 890.69 301.16L890.205 301.823H888.763C889.364 300.739 889.784 299.85 890.021 299.157C890.426 297.986 890.629 296.703 890.629 295.309C890.629 294.415 890.556 293.59 890.41 292.834C890.187 291.681 889.788 290.578 889.214 289.525L888.797 288.76H890.267ZM771.745 305.924H774.773V316H772.812V309.185C772.812 308.989 772.814 308.715 772.818 308.364C772.823 308.009 772.825 307.735 772.825 307.544L770.918 316H768.874L766.98 307.544C766.98 307.735 766.983 308.009 766.987 308.364C766.992 308.715 766.994 308.989 766.994 309.185V316H765.032V305.924H768.095L769.927 313.847L771.745 305.924ZM783.503 309.068C783.343 308.38 782.954 307.899 782.334 307.626C781.988 307.476 781.603 307.4 781.179 307.4C780.368 307.4 779.7 307.708 779.176 308.323C778.656 308.934 778.396 309.854 778.396 311.085C778.396 312.325 778.679 313.202 779.244 313.717C779.809 314.232 780.452 314.489 781.172 314.489C781.878 314.489 782.457 314.286 782.908 313.881C783.359 313.471 783.637 312.935 783.742 312.274H781.411V310.593H785.608V316H784.214L784.002 314.742C783.596 315.221 783.232 315.558 782.908 315.754C782.352 316.096 781.669 316.267 780.857 316.267C779.522 316.267 778.428 315.804 777.576 314.879C776.688 313.949 776.243 312.678 776.243 311.064C776.243 309.433 776.692 308.125 777.59 307.141C778.488 306.156 779.675 305.664 781.151 305.664C782.432 305.664 783.46 305.99 784.234 306.642C785.014 307.289 785.46 308.098 785.574 309.068H783.503ZM788.999 305.924L790.332 311.693L790.619 313.3L790.913 311.728L792.048 305.924H794.27L795.466 311.693L795.773 313.3L796.081 311.755L797.428 305.924H799.567L796.73 316H794.721L793.504 310.107L793.148 308.159L792.793 310.107L791.576 316H789.621L786.764 305.924H788.999ZM800.422 307.045L801.851 307.51V305.862H803.033V307.51L804.462 307.045L804.783 308.063L803.327 308.515L804.277 309.875L803.402 310.497L802.452 309.212L801.475 310.497L800.6 309.875L801.557 308.515L800.101 308.063L800.422 307.045ZM811.414 312.958C811.414 313.354 811.478 313.683 811.605 313.942C811.842 314.421 812.273 314.66 812.897 314.66C813.28 314.66 813.613 314.53 813.896 314.271C814.183 314.006 814.326 313.628 814.326 313.136C814.326 312.484 814.062 312.049 813.533 311.83C813.232 311.707 812.758 311.646 812.111 311.646V310.251C812.745 310.242 813.187 310.18 813.438 310.066C813.87 309.875 814.087 309.488 814.087 308.904C814.087 308.526 813.975 308.218 813.752 307.981C813.533 307.744 813.223 307.626 812.822 307.626C812.362 307.626 812.022 307.772 811.804 308.063C811.59 308.355 811.487 308.745 811.496 309.232H809.678C809.696 308.74 809.78 308.273 809.931 307.831C810.09 307.444 810.341 307.086 810.683 306.758C810.938 306.525 811.241 306.348 811.592 306.225C811.943 306.102 812.373 306.04 812.884 306.04C813.832 306.04 814.595 306.286 815.174 306.778C815.757 307.266 816.049 307.922 816.049 308.747C816.049 309.33 815.876 309.823 815.529 310.224C815.311 310.474 815.083 310.645 814.846 310.736C815.023 310.736 815.279 310.889 815.611 311.194C816.108 311.655 816.356 312.284 816.356 313.081C816.356 313.92 816.065 314.658 815.481 315.296C814.903 315.929 814.044 316.246 812.904 316.246C811.501 316.246 810.525 315.788 809.979 314.872C809.691 314.384 809.532 313.746 809.5 312.958H811.414ZM824.307 307.742C824.015 308.029 823.609 308.542 823.09 309.28C822.57 310.014 822.135 310.773 821.784 311.557C821.506 312.172 821.256 312.924 821.032 313.812C820.809 314.701 820.697 315.43 820.697 316H818.674C818.733 314.223 819.316 312.375 820.424 310.456C821.139 309.267 821.739 308.437 822.222 307.968H817.279L817.307 306.218H824.307V307.742ZM825.154 316C825.173 315.289 825.325 314.64 825.612 314.052C825.89 313.391 826.547 312.691 827.581 311.953C828.479 311.311 829.06 310.85 829.324 310.572C829.73 310.139 829.933 309.665 829.933 309.15C829.933 308.731 829.816 308.382 829.584 308.104C829.352 307.826 829.019 307.688 828.586 307.688C827.993 307.688 827.59 307.909 827.376 308.351C827.253 308.606 827.18 309.011 827.157 309.567H825.264C825.296 308.724 825.448 308.043 825.722 307.523C826.241 306.535 827.164 306.04 828.49 306.04C829.538 306.04 830.372 306.332 830.992 306.915C831.612 307.494 831.922 308.262 831.922 309.219C831.922 309.952 831.703 310.604 831.266 311.174C830.979 311.552 830.507 311.974 829.851 312.438L829.071 312.992C828.584 313.339 828.249 313.589 828.066 313.744C827.889 313.899 827.738 314.079 827.615 314.284H831.942V316H825.154ZM840.063 305.821C840.187 305.821 840.298 305.826 840.398 305.835C840.499 305.84 840.635 305.849 840.809 305.862V307.448C840.699 307.435 840.515 307.425 840.255 307.421C840 307.412 839.822 307.469 839.722 307.592C839.626 307.71 839.578 307.842 839.578 307.988C839.578 308.134 839.578 308.344 839.578 308.617H840.856V309.991H839.578V316H837.637V309.991H836.55V308.617H837.616V308.139C837.616 307.341 837.751 306.792 838.02 306.491C838.302 306.045 838.983 305.821 840.063 305.821ZM841.212 310.005V308.617H842.251V306.539H844.179V308.617H845.389V310.005H844.179V313.942C844.179 314.248 844.217 314.439 844.295 314.517C844.372 314.59 844.609 314.626 845.006 314.626C845.065 314.626 845.127 314.626 845.19 314.626C845.259 314.621 845.325 314.617 845.389 314.612V316.068L844.466 316.103C843.545 316.134 842.916 315.975 842.579 315.624C842.36 315.401 842.251 315.057 842.251 314.592V310.005H841.212ZM848.014 312.958C848.014 313.354 848.077 313.683 848.205 313.942C848.442 314.421 848.873 314.66 849.497 314.66C849.88 314.66 850.213 314.53 850.495 314.271C850.782 314.006 850.926 313.628 850.926 313.136C850.926 312.484 850.661 312.049 850.133 311.83C849.832 311.707 849.358 311.646 848.711 311.646V310.251C849.344 310.242 849.786 310.18 850.037 310.066C850.47 309.875 850.687 309.488 850.687 308.904C850.687 308.526 850.575 308.218 850.352 307.981C850.133 307.744 849.823 307.626 849.422 307.626C848.962 307.626 848.622 307.772 848.403 308.063C848.189 308.355 848.087 308.745 848.096 309.232H846.277C846.296 308.74 846.38 308.273 846.53 307.831C846.69 307.444 846.94 307.086 847.282 306.758C847.537 306.525 847.84 306.348 848.191 306.225C848.542 306.102 848.973 306.04 849.483 306.04C850.431 306.04 851.195 306.286 851.773 306.778C852.357 307.266 852.648 307.922 852.648 308.747C852.648 309.33 852.475 309.823 852.129 310.224C851.91 310.474 851.682 310.645 851.445 310.736C851.623 310.736 851.878 310.889 852.211 311.194C852.708 311.655 852.956 312.284 852.956 313.081C852.956 313.92 852.664 314.658 852.081 315.296C851.502 315.929 850.643 316.246 849.504 316.246C848.1 316.246 847.125 315.788 846.578 314.872C846.291 314.384 846.132 313.746 846.1 312.958H848.014ZM858.828 308.467C859.188 307.628 859.715 306.726 860.407 305.76H861.877L861.46 306.525C860.886 307.578 860.487 308.681 860.264 309.834C860.118 310.59 860.045 311.415 860.045 312.309C860.045 313.703 860.248 314.986 860.653 316.157C860.89 316.85 861.31 317.739 861.911 318.823H860.469L859.983 318.16C859.669 317.759 859.334 317.162 858.979 316.369C858.345 314.952 858.028 313.557 858.028 312.186C858.028 310.937 858.295 309.697 858.828 308.467ZM863.053 309.164V307.838C863.668 307.811 864.099 307.77 864.345 307.715C864.737 307.628 865.056 307.455 865.302 307.195C865.47 307.018 865.598 306.781 865.685 306.484C865.735 306.307 865.76 306.174 865.76 306.088H867.38V316H865.384V309.164H863.053ZM872.302 311.14C872.302 312.279 872.395 313.152 872.582 313.758C872.769 314.359 873.152 314.66 873.73 314.66C874.309 314.66 874.688 314.359 874.865 313.758C875.048 313.152 875.139 312.279 875.139 311.14C875.139 309.946 875.048 309.062 874.865 308.487C874.688 307.913 874.309 307.626 873.73 307.626C873.152 307.626 872.769 307.913 872.582 308.487C872.395 309.062 872.302 309.946 872.302 311.14ZM873.73 306.02C874.993 306.02 875.877 306.464 876.383 307.353C876.893 308.241 877.148 309.504 877.148 311.14C877.148 312.776 876.893 314.036 876.383 314.92C875.877 315.804 874.993 316.246 873.73 316.246C872.468 316.246 871.582 315.804 871.071 314.92C870.565 314.036 870.312 312.776 870.312 311.14C870.312 309.504 870.565 308.241 871.071 307.353C871.582 306.464 872.468 306.02 873.73 306.02ZM878.543 313.963H880.614V316H878.543V313.963ZM883.875 313.348C883.952 313.771 884.101 314.1 884.319 314.332C884.538 314.56 884.857 314.674 885.276 314.674C885.759 314.674 886.126 314.505 886.377 314.168C886.632 313.826 886.76 313.398 886.76 312.883C886.76 312.377 886.641 311.951 886.404 311.604C886.167 311.254 885.798 311.078 885.297 311.078C885.06 311.078 884.855 311.108 884.682 311.167C884.376 311.276 884.146 311.479 883.991 311.775L882.241 311.693L882.938 306.218H888.4V307.872H884.347L883.991 310.039C884.292 309.843 884.527 309.713 884.695 309.649C884.978 309.545 885.322 309.492 885.728 309.492C886.548 309.492 887.263 309.768 887.874 310.319C888.485 310.871 888.79 311.673 888.79 312.726C888.79 313.642 888.496 314.46 887.908 315.18C887.32 315.9 886.441 316.26 885.27 316.26C884.326 316.26 883.551 316.007 882.945 315.501C882.339 314.995 882.002 314.277 881.934 313.348H883.875ZM902.489 308.385C902.817 308.385 903.141 308.449 903.46 308.576C903.779 308.704 904.068 308.927 904.328 309.246C904.538 309.506 904.679 309.825 904.752 310.203C904.798 310.454 904.82 310.821 904.82 311.304L904.807 316H902.811V311.256C902.811 310.973 902.765 310.741 902.674 310.559C902.501 310.212 902.182 310.039 901.717 310.039C901.179 310.039 900.808 310.262 900.603 310.709C900.498 310.946 900.445 311.231 900.445 311.563V316H898.483V311.563C898.483 311.121 898.438 310.8 898.347 310.6C898.183 310.24 897.861 310.06 897.383 310.06C896.827 310.06 896.453 310.24 896.262 310.6C896.157 310.805 896.104 311.11 896.104 311.516V316H894.129V308.562H896.022V309.649C896.264 309.262 896.492 308.986 896.706 308.822C897.084 308.531 897.574 308.385 898.176 308.385C898.745 308.385 899.206 308.51 899.557 308.761C899.839 308.993 900.053 309.292 900.199 309.656C900.454 309.219 900.771 308.897 901.149 308.692C901.55 308.487 901.997 308.385 902.489 308.385ZM907.992 312.958C907.992 313.354 908.056 313.683 908.184 313.942C908.421 314.421 908.851 314.66 909.476 314.66C909.858 314.66 910.191 314.53 910.474 314.271C910.761 314.006 910.904 313.628 910.904 313.136C910.904 312.484 910.64 312.049 910.111 311.83C909.811 311.707 909.337 311.646 908.689 311.646V310.251C909.323 310.242 909.765 310.18 910.016 310.066C910.449 309.875 910.665 309.488 910.665 308.904C910.665 308.526 910.553 308.218 910.33 307.981C910.111 307.744 909.801 307.626 909.4 307.626C908.94 307.626 908.601 307.772 908.382 308.063C908.168 308.355 908.065 308.745 908.074 309.232H906.256C906.274 308.74 906.358 308.273 906.509 307.831C906.668 307.444 906.919 307.086 907.261 306.758C907.516 306.525 907.819 306.348 908.17 306.225C908.521 306.102 908.951 306.04 909.462 306.04C910.41 306.04 911.173 306.286 911.752 306.778C912.335 307.266 912.627 307.922 912.627 308.747C912.627 309.33 912.454 309.823 912.107 310.224C911.889 310.474 911.661 310.645 911.424 310.736C911.602 310.736 911.857 310.889 912.189 311.194C912.686 311.655 912.935 312.284 912.935 313.081C912.935 313.92 912.643 314.658 912.06 315.296C911.481 315.929 910.622 316.246 909.482 316.246C908.079 316.246 907.104 315.788 906.557 314.872C906.27 314.384 906.11 313.746 906.078 312.958H907.992ZM915.149 305.76C915.842 306.726 916.368 307.628 916.729 308.467C917.262 309.697 917.528 310.937 917.528 312.186C917.528 313.557 917.212 314.952 916.578 316.369C916.223 317.162 915.888 317.759 915.573 318.16L915.088 318.823H913.646C914.247 317.739 914.666 316.85 914.903 316.157C915.309 314.986 915.512 313.703 915.512 312.309C915.512 311.415 915.439 310.59 915.293 309.834C915.07 308.681 914.671 307.578 914.097 306.525L913.68 305.76H915.149Z" fill="white"/></svg>