<svg width="495" height="246" viewBox="0 0 495 246" fill="none" xmlns="http://www.w3.org/2000/svg">
<path opacity="0.5" d="M26.8317 38.5101V69.8162M26.8317 38.5101H12.2089C13.2884 47.6762 15.6913 55.5327 26.8317 69.8162M26.8317 38.5101L166.635 38.5104M26.8317 69.8162C33.2114 79.8698 41.499 88.1513 51.9525 94.0418L141.514 94.042C151.967 88.1515 160.255 79.87 166.635 69.8164M3.67658 7.95734C3.67658 7.95734 3.67658 -23.1811 3.67658 41.7837C7.17166 55.7508 26.6132 112.274 96.7332 114.02C166.853 112.274 186.295 55.751 189.79 41.7839V7.95756M12.2091 7.95703C12.2091 7.95703 10.8578 23.0501 12.2089 30.2172L96.7611 30.2174H181.257C182.609 23.0503 181.257 7.95724 181.257 7.95724M3.62109 41.7836C3.62109 -23.1812 3.62109 7.95723 3.62109 7.95723M166.635 38.5104H181.257C180.178 47.6764 177.775 55.5329 166.635 69.8164M166.635 38.5104V69.8164M189.845 7.95744V41.7838" stroke="white" stroke-width="0.5"/>
<path opacity="0.5" d="M24.2106 169.489V200.795M24.2106 169.489H9.58782C10.6674 178.655 13.0702 186.511 24.2106 200.795M24.2106 169.489L164.014 169.489M24.2106 200.795C30.5903 210.848 38.8779 219.13 49.3314 225.02L138.893 225.021C149.346 219.13 157.634 210.848 164.014 200.795M1.05549 138.936C1.05549 138.936 1.05549 107.797 1.05549 172.762C4.55057 186.729 23.9921 243.252 94.1121 244.998C164.232 243.252 183.674 186.73 187.169 172.762V138.936M9.58802 138.936C9.58802 138.936 8.23667 154.029 9.58782 161.196L94.14 161.196H178.636C179.988 154.029 178.636 138.936 178.636 138.936M1 172.762C1 107.797 1 138.936 1 138.936M164.014 169.489H178.636C177.557 178.655 175.154 186.511 164.014 200.795M164.014 169.489V200.795M187.224 138.936V172.762" stroke="white" stroke-width="0.5"/>
<path d="M50.4219 189.967V170.98H52.6063H66.5866H76.8534H87.3386H99.5714H109.838H120.542H130.59H137.143V189.967V201.533V204.807V222.702H133.102H129.061H122.071H118.576H111.586H108.091H101.319H97.387H90.1784H86.4649H78.8194H74.4505H68.5526H64.8391H56.5383H52.6063H50.4219V210.481V194.332V189.967Z" fill="#C89782"/>
<path d="M50.4219 189.967V170.98H52.6063M50.4219 189.967H52.6063M50.4219 189.967V194.332M137.143 189.967V170.98H66.5866M137.143 189.967H66.5866M137.143 189.967V201.533M52.6063 170.98V189.967M52.6063 170.98H66.5866M52.6063 189.967H66.5866M52.6063 189.967L50.4219 194.332M52.6063 189.967L68.5526 222.702M66.5866 189.967V170.98M66.5866 189.967L52.6063 222.702M66.5866 189.967L78.8194 222.702M76.8534 189.967V170.98M76.8534 189.967L64.8391 222.702M76.8534 189.967L90.1784 222.702M87.3386 189.967V170.98M87.3386 189.967L74.4505 222.702M87.3386 189.967L101.319 222.702M99.5714 189.967V170.98M99.5714 189.967L86.4649 222.702M99.5714 189.967L111.586 222.702M109.838 189.967V170.98M109.838 189.967L97.387 222.702M109.838 189.967L122.071 222.702M120.542 189.967V170.98M120.542 189.967L108.091 222.702M120.542 189.967L133.102 222.702M130.59 189.967V170.98M130.59 189.967L118.576 222.702M130.59 189.967L137.143 201.533M52.6063 222.702H50.4219V210.481M52.6063 222.702H56.5383M64.8391 222.702H56.5383M64.8391 222.702H68.5526M74.4505 222.702H68.5526M74.4505 222.702H78.8194M86.4649 222.702H78.8194M86.4649 222.702H90.1784M97.387 222.702H90.1784M97.387 222.702H101.319M108.091 222.702H101.319M108.091 222.702H111.586M118.576 222.702H111.586M118.576 222.702H122.071M137.143 204.807V222.702H133.102M137.143 204.807L129.061 222.702M137.143 204.807V201.533M129.061 222.702H122.071M129.061 222.702H133.102M50.4219 210.481L56.5383 222.702M50.4219 210.481V194.332" stroke="white" stroke-width="0.5"/>
<path d="M94.3312 43.748H32.7305V70.3728L56.3222 92.1964H94.3312V43.748Z" fill="#E0AF77"/>
<path d="M98.9185 43.748H160.519V70.3728L136.927 92.1964H98.9185V43.748Z" fill="#E0AF77"/>
<path d="M94.3312 43.748H32.7305V70.3728L56.3222 92.1964H94.3312V43.748Z" stroke="white" stroke-width="0.5"/>
<path d="M98.9185 43.748H160.519V70.3728L136.927 92.1964H98.9185V43.748Z" stroke="white" stroke-width="0.5"/>
<rect x="241.809" y="41.8145" width="8.67458" height="15.2121" fill="#E0AF77" stroke="white" stroke-width="0.5"/>
<rect x="241.809" y="61.457" width="8.67458" height="15.2121" fill="#E0AF77" stroke="white" stroke-width="0.5"/>
<rect x="357.148" y="61.457" width="8.67458" height="15.2121" fill="#E0AF77" stroke="white" stroke-width="0.5"/>
<rect x="357.148" y="41.8145" width="8.67458" height="15.2121" fill="#E0AF77" stroke="white" stroke-width="0.5"/>
<rect x="254.043" y="41.8145" width="8.67458" height="15.2121" fill="#E0AF77" stroke="white" stroke-width="0.5"/>
<rect x="254.043" y="61.457" width="8.67458" height="15.2121" fill="#E0AF77" stroke="white" stroke-width="0.5"/>
<rect x="369.379" y="61.457" width="8.67458" height="15.2121" fill="#E0AF77" stroke="white" stroke-width="0.5"/>
<rect x="369.379" y="41.8145" width="8.67458" height="15.2121" fill="#E0AF77" stroke="white" stroke-width="0.5"/>
<rect x="266.273" y="41.8145" width="8.67458" height="15.2121" fill="#E0AF77" stroke="white" stroke-width="0.5"/>
<rect x="266.273" y="61.457" width="8.67458" height="15.2121" fill="#E0AF77" stroke="white" stroke-width="0.5"/>
<rect x="381.613" y="61.457" width="8.67458" height="15.2121" fill="#E0AF77" stroke="white" stroke-width="0.5"/>
<rect x="381.613" y="41.8145" width="8.67458" height="15.2121" fill="#E0AF77" stroke="white" stroke-width="0.5"/>
<rect x="278.508" y="41.8145" width="8.67458" height="15.2121" fill="#E0AF77" stroke="white" stroke-width="0.5"/>
<rect x="278.508" y="61.457" width="8.67458" height="15.2121" fill="#E0AF77" stroke="white" stroke-width="0.5"/>
<rect x="393.844" y="61.457" width="8.67458" height="15.2121" fill="#E0AF77" stroke="white" stroke-width="0.5"/>
<rect x="393.844" y="41.8145" width="8.67458" height="15.2121" fill="#E0AF77" stroke="white" stroke-width="0.5"/>
<rect x="290.742" y="41.8145" width="8.67458" height="15.2121" fill="#E0AF77" stroke="white" stroke-width="0.5"/>
<rect x="290.742" y="61.457" width="8.67458" height="15.2121" fill="#E0AF77" stroke="white" stroke-width="0.5"/>
<rect x="406.078" y="61.457" width="8.67458" height="15.2121" fill="#E0AF77" stroke="white" stroke-width="0.5"/>
<rect x="406.078" y="41.8145" width="8.67458" height="15.2121" fill="#E0AF77" stroke="white" stroke-width="0.5"/>
<rect x="302.973" y="41.8145" width="8.67458" height="15.2121" fill="#E0AF77" stroke="white" stroke-width="0.5"/>
<rect x="302.973" y="61.457" width="8.67458" height="15.2121" fill="#E0AF77" stroke="white" stroke-width="0.5"/>
<rect x="418.312" y="61.457" width="8.67458" height="15.2121" fill="#E0AF77" stroke="white" stroke-width="0.5"/>
<rect x="418.312" y="41.8145" width="8.67458" height="15.2121" fill="#E0AF77" stroke="white" stroke-width="0.5"/>
<rect x="315.207" y="41.8145" width="8.67458" height="15.2121" fill="#E0AF77" stroke="white" stroke-width="0.5"/>
<rect x="315.207" y="61.457" width="8.67458" height="15.2121" fill="#E0AF77" stroke="white" stroke-width="0.5"/>
<rect x="430.543" y="61.457" width="8.67458" height="15.2121" fill="#E0AF77" stroke="white" stroke-width="0.5"/>
<rect x="430.543" y="41.8145" width="8.67458" height="15.2121" fill="#E0AF77" stroke="white" stroke-width="0.5"/>
<rect x="327.438" y="41.8145" width="8.67458" height="15.2121" fill="#E0AF77" stroke="white" stroke-width="0.5"/>
<rect x="327.438" y="61.457" width="8.67458" height="15.2121" fill="#E0AF77" stroke="white" stroke-width="0.5"/>
<path d="M337.019 34.1445H281.753V39.164H337.019V79.1011H240.686V39.164H257.069V34.1445H239.375C236.9 34.4355 235.006 34.7992 231.293 35.8904M231.293 82.3746C235.007 83.4658 236.9 83.8296 239.375 84.1205H337.019M350.344 34.1445H417.624V39.164H355.587V79.1011H440.561V74.0817H484.249V70.3717M484.249 70.3717H440.561M484.249 70.3717V47.8934H461.75V44.4562M488.618 41.1281C481.104 37.2871 467.575 35.8904 461.75 35.6722V43.5287M439.25 41.019V47.8934H451.264V44.4562M439.25 41.019V34.1445H451.264V41.019M439.25 41.019H451.264M451.264 41.019V44.4562M451.264 44.4562H461.75M461.75 44.4562V43.5287M461.75 43.5287H484.249M488.618 77.137C481.104 80.9779 457.09 83.9023 451.264 84.1205H350.344" stroke="white" stroke-width="0.5"/>
<path d="M337.019 163.34H281.753V168.359H337.019V208.296H240.686V168.359H257.069V163.34H239.375C236.9 163.631 235.006 163.995 231.293 165.086M231.293 211.57C235.007 212.661 236.9 213.025 239.375 213.316H337.019M350.344 163.34H417.624V168.359H355.587V208.296H440.561V203.277H484.249V199.567M484.249 199.567H440.561M484.249 199.567V177.089H461.75V173.651M488.618 170.323C481.104 166.482 467.575 165.086 461.75 164.867V172.724M439.25 170.214V177.089H451.264V173.651M439.25 170.214V163.34H451.264V170.214M439.25 170.214H451.264M451.264 170.214V173.651M451.264 173.651H461.75M461.75 173.651V172.724M461.75 172.724H484.249M488.618 206.332C481.104 210.173 457.09 213.098 451.264 213.316H350.344" stroke="white" stroke-width="0.5"/>
<rect x="240.719" y="175.811" width="15.6647" height="23.9424" fill="#E0AF77" stroke="white" stroke-width="0.5"/>
<rect x="362.172" y="175.811" width="15.6647" height="23.9424" fill="#E0AF77" stroke="white" stroke-width="0.5"/>
<rect x="260.379" y="175.811" width="15.6647" height="23.9424" fill="#E0AF77" stroke="white" stroke-width="0.5"/>
<rect x="381.832" y="175.811" width="15.6647" height="23.9424" fill="#E0AF77" stroke="white" stroke-width="0.5"/>
<rect x="280.039" y="175.811" width="15.6647" height="23.9424" fill="#E0AF77" stroke="white" stroke-width="0.5"/>
<rect x="401.492" y="175.811" width="15.6647" height="23.9424" fill="#E0AF77" stroke="white" stroke-width="0.5"/>
<rect x="299.695" y="175.811" width="15.6647" height="23.9424" fill="#E0AF77" stroke="white" stroke-width="0.5"/>
<rect x="421.152" y="175.811" width="15.6647" height="23.9424" fill="#E0AF77" stroke="white" stroke-width="0.5"/>
<rect x="319.355" y="175.811" width="15.6647" height="23.9424" fill="#E0AF77" stroke="white" stroke-width="0.5"/>
<path d="M248.484 13.5117H255.628V15.2822H250.576V17.5996H254.999V19.3496H250.576V23.5742H248.484V13.5117ZM260.399 16.123H262.375L263.51 21.4893L264.672 16.123H266.702L264.542 23.5742H262.539L261.37 18.1465L260.188 23.5742H258.164L256.072 16.123H258.164L259.326 21.4688L260.399 16.123ZM270.53 15.9453C270.981 15.9453 271.382 16.0456 271.733 16.2461C272.084 16.4421 272.369 16.7155 272.588 17.0664V13.5117H274.563V23.5742H272.67V22.542C272.392 22.984 272.075 23.3053 271.72 23.5059C271.364 23.7064 270.922 23.8066 270.394 23.8066C269.523 23.8066 268.789 23.4557 268.192 22.7539C267.6 22.0475 267.304 21.1429 267.304 20.04C267.304 18.7686 267.595 17.7682 268.179 17.0391C268.767 16.3099 269.55 15.9453 270.53 15.9453ZM270.954 22.166C271.506 22.166 271.925 21.9609 272.212 21.5508C272.499 21.1406 272.643 20.6097 272.643 19.958C272.643 19.0465 272.412 18.3949 271.952 18.0029C271.67 17.766 271.341 17.6475 270.968 17.6475C270.398 17.6475 269.979 17.8639 269.71 18.2969C269.446 18.7253 269.313 19.2585 269.313 19.8965C269.313 20.5846 269.448 21.1361 269.717 21.5508C269.99 21.9609 270.403 22.166 270.954 22.166ZM284.688 18.7959C284.651 18.5179 284.558 18.2673 284.407 18.0439C284.188 17.7432 283.849 17.5928 283.389 17.5928C282.732 17.5928 282.284 17.9186 282.042 18.5703C281.914 18.9167 281.851 19.377 281.851 19.9512C281.851 20.498 281.914 20.9378 282.042 21.2705C282.274 21.8903 282.712 22.2002 283.354 22.2002C283.81 22.2002 284.134 22.0771 284.325 21.8311C284.517 21.585 284.633 21.266 284.674 20.874H286.663C286.618 21.4665 286.403 22.027 286.021 22.5557C285.41 23.4079 284.505 23.834 283.307 23.834C282.108 23.834 281.226 23.4785 280.661 22.7676C280.096 22.0566 279.813 21.1338 279.813 19.999C279.813 18.7184 280.126 17.7227 280.75 17.0117C281.374 16.3008 282.236 15.9453 283.334 15.9453C284.268 15.9453 285.032 16.1549 285.624 16.5742C286.221 16.9935 286.574 17.734 286.684 18.7959H284.688ZM291.373 22.2002C291.943 22.2002 292.38 21.9974 292.686 21.5918C292.991 21.1862 293.144 20.6097 293.144 19.8623C293.144 19.1149 292.991 18.5407 292.686 18.1396C292.38 17.734 291.943 17.5312 291.373 17.5312C290.803 17.5312 290.364 17.734 290.054 18.1396C289.748 18.5407 289.596 19.1149 289.596 19.8623C289.596 20.6097 289.748 21.1862 290.054 21.5918C290.364 21.9974 290.803 22.2002 291.373 22.2002ZM295.188 19.8623C295.188 20.9561 294.873 21.8926 294.244 22.6719C293.615 23.4466 292.66 23.834 291.38 23.834C290.099 23.834 289.145 23.4466 288.516 22.6719C287.887 21.8926 287.572 20.9561 287.572 19.8623C287.572 18.7868 287.887 17.8548 288.516 17.0664C289.145 16.278 290.099 15.8838 291.38 15.8838C292.66 15.8838 293.615 16.278 294.244 17.0664C294.873 17.8548 295.188 18.7868 295.188 19.8623ZM304.915 15.959C305.243 15.959 305.567 16.0228 305.886 16.1504C306.205 16.278 306.494 16.5013 306.754 16.8203C306.964 17.0801 307.105 17.3991 307.178 17.7773C307.223 18.028 307.246 18.3949 307.246 18.8779L307.232 23.5742H305.236V18.8301C305.236 18.5475 305.191 18.3151 305.1 18.1328C304.926 17.7865 304.607 17.6133 304.143 17.6133C303.605 17.6133 303.233 17.8366 303.028 18.2832C302.924 18.5202 302.871 18.805 302.871 19.1377V23.5742H300.909V19.1377C300.909 18.6956 300.864 18.3743 300.772 18.1738C300.608 17.8138 300.287 17.6338 299.809 17.6338C299.253 17.6338 298.879 17.8138 298.688 18.1738C298.583 18.3789 298.53 18.6842 298.53 19.0898V23.5742H296.555V16.1367H298.448V17.2236C298.69 16.8363 298.918 16.5605 299.132 16.3965C299.51 16.1048 300 15.959 300.602 15.959C301.171 15.959 301.632 16.0843 301.982 16.335C302.265 16.5674 302.479 16.8659 302.625 17.2305C302.88 16.793 303.197 16.4717 303.575 16.2666C303.976 16.0615 304.423 15.959 304.915 15.959ZM314.178 19.8486C314.178 19.2744 314.046 18.7663 313.781 18.3242C313.521 17.8822 313.098 17.6611 312.51 17.6611C311.803 17.6611 311.318 17.9961 311.054 18.666C310.917 19.0215 310.849 19.4727 310.849 20.0195C310.849 20.8854 311.079 21.4938 311.539 21.8447C311.812 22.0498 312.136 22.1523 312.51 22.1523C313.052 22.1523 313.465 21.9427 313.747 21.5234C314.034 21.1042 314.178 20.5459 314.178 19.8486ZM313.07 15.959C313.941 15.959 314.677 16.2803 315.278 16.9229C315.884 17.5654 316.188 18.5088 316.188 19.7529C316.188 21.0654 315.891 22.0658 315.299 22.7539C314.711 23.4421 313.952 23.7861 313.022 23.7861C312.43 23.7861 311.938 23.638 311.546 23.3418C311.332 23.1777 311.122 22.9385 310.917 22.624V26.5068H308.989V16.123H310.855V17.2236C311.065 16.9001 311.288 16.6449 311.525 16.458C311.958 16.1253 312.473 15.959 313.07 15.959ZM316.837 17.5791V16.1914H317.876V14.1133H319.804V16.1914H321.014V17.5791H319.804V21.5166C319.804 21.8219 319.842 22.0133 319.92 22.0908C319.997 22.1637 320.234 22.2002 320.631 22.2002C320.69 22.2002 320.752 22.2002 320.815 22.2002C320.884 22.1956 320.95 22.1911 321.014 22.1865V23.6426L320.091 23.6768C319.17 23.7087 318.541 23.5492 318.204 23.1982C317.985 22.9749 317.876 22.6309 317.876 22.166V17.5791H316.837Z" fill="white"/>
<path d="M371.615 19.7666H374.172L372.914 15.8018L371.615 19.7666ZM371.745 13.498H374.124L377.692 23.5742H375.409L374.76 21.5029H371.048L370.351 23.5742H368.149L371.745 13.498ZM381.568 13.3955C381.691 13.3955 381.803 13.4001 381.903 13.4092C382.004 13.4137 382.14 13.4229 382.313 13.4365V15.0225C382.204 15.0088 382.02 14.9997 381.76 14.9951C381.505 14.986 381.327 15.043 381.227 15.166C381.131 15.2845 381.083 15.4167 381.083 15.5625C381.083 15.7083 381.083 15.918 381.083 16.1914H382.361V17.5654H381.083V23.5742H379.142V17.5654H378.055V16.1914H379.121V15.7129C379.121 14.9154 379.256 14.3662 379.524 14.0654C379.807 13.6188 380.488 13.3955 381.568 13.3955ZM382.717 17.5791V16.1914H383.756V14.1133H385.684V16.1914H386.894V17.5791H385.684V21.5166C385.684 21.8219 385.722 22.0133 385.8 22.0908C385.877 22.1637 386.114 22.2002 386.511 22.2002C386.57 22.2002 386.632 22.2002 386.695 22.2002C386.764 22.1956 386.83 22.1911 386.894 22.1865V23.6426L385.971 23.6768C385.05 23.7087 384.421 23.5492 384.084 23.1982C383.865 22.9749 383.756 22.6309 383.756 22.166V17.5791H382.717ZM396.491 18.7959C396.455 18.5179 396.361 18.2673 396.211 18.0439C395.992 17.7432 395.653 17.5928 395.192 17.5928C394.536 17.5928 394.087 17.9186 393.846 18.5703C393.718 18.9167 393.654 19.377 393.654 19.9512C393.654 20.498 393.718 20.9378 393.846 21.2705C394.078 21.8903 394.516 22.2002 395.158 22.2002C395.614 22.2002 395.938 22.0771 396.129 21.8311C396.32 21.585 396.437 21.266 396.478 20.874H398.467C398.421 21.4665 398.207 22.027 397.824 22.5557C397.214 23.4079 396.309 23.834 395.11 23.834C393.912 23.834 393.03 23.4785 392.465 22.7676C391.9 22.0566 391.617 21.1338 391.617 19.999C391.617 18.7184 391.929 17.7227 392.554 17.0117C393.178 16.3008 394.039 15.9453 395.138 15.9453C396.072 15.9453 396.835 16.1549 397.428 16.5742C398.025 16.9935 398.378 17.734 398.487 18.7959H396.491ZM403.177 22.2002C403.746 22.2002 404.184 21.9974 404.489 21.5918C404.795 21.1862 404.947 20.6097 404.947 19.8623C404.947 19.1149 404.795 18.5407 404.489 18.1396C404.184 17.734 403.746 17.5312 403.177 17.5312C402.607 17.5312 402.167 17.734 401.857 18.1396C401.552 18.5407 401.399 19.1149 401.399 19.8623C401.399 20.6097 401.552 21.1862 401.857 21.5918C402.167 21.9974 402.607 22.2002 403.177 22.2002ZM406.991 19.8623C406.991 20.9561 406.677 21.8926 406.048 22.6719C405.419 23.4466 404.464 23.834 403.184 23.834C401.903 23.834 400.948 23.4466 400.319 22.6719C399.69 21.8926 399.376 20.9561 399.376 19.8623C399.376 18.7868 399.69 17.8548 400.319 17.0664C400.948 16.278 401.903 15.8838 403.184 15.8838C404.464 15.8838 405.419 16.278 406.048 17.0664C406.677 17.8548 406.991 18.7868 406.991 19.8623ZM416.719 15.959C417.047 15.959 417.37 16.0228 417.689 16.1504C418.008 16.278 418.298 16.5013 418.558 16.8203C418.767 17.0801 418.909 17.3991 418.981 17.7773C419.027 18.028 419.05 18.3949 419.05 18.8779L419.036 23.5742H417.04V18.8301C417.04 18.5475 416.994 18.3151 416.903 18.1328C416.73 17.7865 416.411 17.6133 415.946 17.6133C415.409 17.6133 415.037 17.8366 414.832 18.2832C414.727 18.5202 414.675 18.805 414.675 19.1377V23.5742H412.713V19.1377C412.713 18.6956 412.667 18.3743 412.576 18.1738C412.412 17.8138 412.091 17.6338 411.612 17.6338C411.056 17.6338 410.683 17.8138 410.491 18.1738C410.386 18.3789 410.334 18.6842 410.334 19.0898V23.5742H408.358V16.1367H410.252V17.2236C410.493 16.8363 410.721 16.5605 410.936 16.3965C411.314 16.1048 411.804 15.959 412.405 15.959C412.975 15.959 413.435 16.0843 413.786 16.335C414.069 16.5674 414.283 16.8659 414.429 17.2305C414.684 16.793 415.001 16.4717 415.379 16.2666C415.78 16.0615 416.227 15.959 416.719 15.959ZM425.981 19.8486C425.981 19.2744 425.849 18.7663 425.585 18.3242C425.325 17.8822 424.901 17.6611 424.313 17.6611C423.607 17.6611 423.122 17.9961 422.857 18.666C422.721 19.0215 422.652 19.4727 422.652 20.0195C422.652 20.8854 422.882 21.4938 423.343 21.8447C423.616 22.0498 423.94 22.1523 424.313 22.1523C424.856 22.1523 425.268 21.9427 425.551 21.5234C425.838 21.1042 425.981 20.5459 425.981 19.8486ZM424.874 15.959C425.744 15.959 426.48 16.2803 427.082 16.9229C427.688 17.5654 427.991 18.5088 427.991 19.7529C427.991 21.0654 427.695 22.0658 427.103 22.7539C426.515 23.4421 425.756 23.7861 424.826 23.7861C424.234 23.7861 423.742 23.638 423.35 23.3418C423.135 23.1777 422.926 22.9385 422.721 22.624V26.5068H420.793V16.123H422.659V17.2236C422.869 16.9001 423.092 16.6449 423.329 16.458C423.762 16.1253 424.277 15.959 424.874 15.959ZM428.641 17.5791V16.1914H429.68V14.1133H431.607V16.1914H432.817V17.5791H431.607V21.5166C431.607 21.8219 431.646 22.0133 431.724 22.0908C431.801 22.1637 432.038 22.2002 432.435 22.2002C432.494 22.2002 432.555 22.2002 432.619 22.2002C432.688 22.1956 432.754 22.1911 432.817 22.1865V23.6426L431.895 23.6768C430.974 23.7087 430.345 23.5492 430.008 23.1982C429.789 22.9749 429.68 22.6309 429.68 22.166V17.5791H428.641Z" fill="white"/>
<path d="M263.284 94.248V96.0322H260.27V104.324H258.15V96.0322H255.122V94.248H263.284ZM268.473 96.6816C268.933 96.6816 269.35 96.7614 269.724 96.9209C270.102 97.0804 270.412 97.3242 270.653 97.6523C270.858 97.9303 270.984 98.2174 271.029 98.5137C271.075 98.8053 271.098 99.2839 271.098 99.9492V104.324H269.108V99.792C269.108 99.391 269.04 99.0674 268.903 98.8213C268.726 98.4749 268.388 98.3018 267.892 98.3018C267.377 98.3018 266.985 98.4749 266.716 98.8213C266.451 99.1631 266.319 99.653 266.319 100.291V104.324H264.378V94.2822H266.319V97.8438C266.602 97.4108 266.928 97.11 267.297 96.9414C267.671 96.7682 268.062 96.6816 268.473 96.6816ZM274.926 95.9844H272.95V94.1865H274.926V95.9844ZM272.95 96.873H274.926V104.324H272.95V96.873ZM280.866 96.6953C280.903 96.6953 280.932 96.6976 280.955 96.7021C280.982 96.7021 281.039 96.7044 281.126 96.709V98.7051C281.003 98.6914 280.894 98.6823 280.798 98.6777C280.702 98.6732 280.625 98.6709 280.565 98.6709C279.782 98.6709 279.255 98.9261 278.986 99.4365C278.836 99.7236 278.761 100.166 278.761 100.763V104.324H276.799V96.873H278.658V98.1719C278.959 97.6751 279.221 97.3356 279.444 97.1533C279.809 96.848 280.283 96.6953 280.866 96.6953ZM281.509 98.3291V96.9414H282.548V94.8633H284.476V96.9414H285.686V98.3291H284.476V102.267C284.476 102.572 284.514 102.763 284.592 102.841C284.669 102.914 284.906 102.95 285.303 102.95C285.362 102.95 285.424 102.95 285.487 102.95C285.556 102.946 285.622 102.941 285.686 102.937V104.393L284.763 104.427C283.842 104.459 283.213 104.299 282.876 103.948C282.657 103.725 282.548 103.381 282.548 102.916V98.3291H281.509ZM287.237 105.753L287.483 105.767C287.675 105.776 287.857 105.769 288.03 105.746C288.203 105.723 288.349 105.671 288.468 105.589C288.582 105.511 288.687 105.35 288.782 105.104C288.882 104.857 288.924 104.707 288.905 104.652L286.171 96.873H288.338L289.965 102.369L291.503 96.873H293.574L291.018 104.201C290.525 105.614 290.136 106.489 289.849 106.826C289.562 107.168 288.987 107.339 288.126 107.339C287.953 107.339 287.814 107.337 287.709 107.332C287.604 107.332 287.447 107.325 287.237 107.312V105.753ZM302.734 96.6816C303.195 96.6816 303.612 96.7614 303.985 96.9209C304.364 97.0804 304.674 97.3242 304.915 97.6523C305.12 97.9303 305.245 98.2174 305.291 98.5137C305.337 98.8053 305.359 99.2839 305.359 99.9492V104.324H303.37V99.792C303.37 99.391 303.302 99.0674 303.165 98.8213C302.987 98.4749 302.65 98.3018 302.153 98.3018C301.638 98.3018 301.246 98.4749 300.978 98.8213C300.713 99.1631 300.581 99.653 300.581 100.291V104.324H298.64V94.2822H300.581V97.8438C300.864 97.4108 301.189 97.11 301.559 96.9414C301.932 96.7682 302.324 96.6816 302.734 96.6816ZM311.293 100.701C311.17 100.779 311.045 100.842 310.917 100.893C310.794 100.938 310.623 100.981 310.404 101.022L309.967 101.104C309.557 101.177 309.263 101.266 309.085 101.371C308.784 101.549 308.634 101.825 308.634 102.198C308.634 102.531 308.725 102.772 308.907 102.923C309.094 103.069 309.32 103.142 309.584 103.142C310.003 103.142 310.388 103.019 310.739 102.772C311.095 102.526 311.279 102.077 311.293 101.426V100.701ZM310.11 99.792C310.47 99.7464 310.728 99.6895 310.883 99.6211C311.161 99.5026 311.3 99.318 311.3 99.0674C311.3 98.762 311.193 98.5524 310.979 98.4385C310.769 98.32 310.459 98.2607 310.049 98.2607C309.589 98.2607 309.263 98.3747 309.071 98.6025C308.935 98.7712 308.843 98.999 308.798 99.2861H306.918C306.959 98.6344 307.141 98.099 307.465 97.6797C307.98 97.0234 308.864 96.6953 310.117 96.6953C310.933 96.6953 311.658 96.8571 312.291 97.1807C312.924 97.5042 313.241 98.1149 313.241 99.0127V102.431C313.241 102.668 313.246 102.955 313.255 103.292C313.269 103.547 313.307 103.72 313.371 103.812C313.435 103.903 313.531 103.978 313.658 104.037V104.324H311.539C311.48 104.174 311.439 104.033 311.416 103.9C311.393 103.768 311.375 103.618 311.361 103.449C311.092 103.741 310.783 103.989 310.432 104.194C310.012 104.436 309.538 104.557 309.01 104.557C308.335 104.557 307.777 104.365 307.335 103.982C306.897 103.595 306.679 103.048 306.679 102.342C306.679 101.426 307.032 100.763 307.738 100.353C308.126 100.129 308.695 99.9697 309.447 99.874L310.11 99.792ZM316.967 104.324H315.019V94.248H316.967V104.324ZM321.622 94.1455C321.745 94.1455 321.857 94.1501 321.957 94.1592C322.057 94.1637 322.194 94.1729 322.367 94.1865V95.7725C322.258 95.7588 322.073 95.7497 321.813 95.7451C321.558 95.736 321.381 95.793 321.28 95.916C321.185 96.0345 321.137 96.1667 321.137 96.3125C321.137 96.4583 321.137 96.668 321.137 96.9414H322.415V98.3154H321.137V104.324H319.195V98.3154H318.108V96.9414H319.175V96.4629C319.175 95.6654 319.309 95.1162 319.578 94.8154C319.861 94.3688 320.542 94.1455 321.622 94.1455ZM322.948 99.498H326.872V101.344H322.948V99.498ZM331.712 96.873H333.688L334.822 102.239L335.984 96.873H338.015L335.854 104.324H333.852L332.683 98.8965L331.5 104.324H329.477L327.385 96.873H329.477L330.639 102.219L331.712 96.873ZM341.098 95.9844H339.122V94.1865H341.098V95.9844ZM339.122 96.873H341.098V104.324H339.122V96.873ZM345.739 96.6953C346.19 96.6953 346.591 96.7956 346.942 96.9961C347.293 97.1921 347.578 97.4655 347.797 97.8164V94.2617H349.772V104.324H347.879V103.292C347.601 103.734 347.284 104.055 346.929 104.256C346.573 104.456 346.131 104.557 345.603 104.557C344.732 104.557 343.998 104.206 343.401 103.504C342.809 102.798 342.513 101.893 342.513 100.79C342.513 99.5186 342.804 98.5182 343.388 97.7891C343.976 97.0599 344.759 96.6953 345.739 96.6953ZM346.163 102.916C346.715 102.916 347.134 102.711 347.421 102.301C347.708 101.891 347.852 101.36 347.852 100.708C347.852 99.7965 347.621 99.1449 347.161 98.7529C346.879 98.516 346.55 98.3975 346.177 98.3975C345.607 98.3975 345.188 98.6139 344.919 99.0469C344.655 99.4753 344.522 100.008 344.522 100.646C344.522 101.335 344.657 101.886 344.926 102.301C345.199 102.711 345.612 102.916 346.163 102.916ZM350.784 98.3291V96.9414H351.823V94.8633H353.751V96.9414H354.961V98.3291H353.751V102.267C353.751 102.572 353.79 102.763 353.867 102.841C353.945 102.914 354.182 102.95 354.578 102.95C354.637 102.95 354.699 102.95 354.763 102.95C354.831 102.946 354.897 102.941 354.961 102.937V104.393L354.038 104.427C353.118 104.459 352.489 104.299 352.151 103.948C351.933 103.725 351.823 103.381 351.823 102.916V98.3291H350.784ZM360.32 96.6816C360.781 96.6816 361.198 96.7614 361.571 96.9209C361.95 97.0804 362.259 97.3242 362.501 97.6523C362.706 97.9303 362.831 98.2174 362.877 98.5137C362.923 98.8053 362.945 99.2839 362.945 99.9492V104.324H360.956V99.792C360.956 99.391 360.888 99.0674 360.751 98.8213C360.573 98.4749 360.236 98.3018 359.739 98.3018C359.224 98.3018 358.832 98.4749 358.563 98.8213C358.299 99.1631 358.167 99.653 358.167 100.291V104.324H356.226V94.2822H358.167V97.8438C358.45 97.4108 358.775 97.11 359.145 96.9414C359.518 96.7682 359.91 96.6816 360.32 96.6816ZM373.117 99.5459C373.081 99.2679 372.987 99.0173 372.837 98.7939C372.618 98.4932 372.279 98.3428 371.818 98.3428C371.162 98.3428 370.713 98.6686 370.472 99.3203C370.344 99.6667 370.28 100.127 370.28 100.701C370.28 101.248 370.344 101.688 370.472 102.021C370.704 102.64 371.142 102.95 371.784 102.95C372.24 102.95 372.563 102.827 372.755 102.581C372.946 102.335 373.062 102.016 373.104 101.624H375.093C375.047 102.216 374.833 102.777 374.45 103.306C373.84 104.158 372.935 104.584 371.736 104.584C370.538 104.584 369.656 104.229 369.091 103.518C368.526 102.807 368.243 101.884 368.243 100.749C368.243 99.4684 368.555 98.4727 369.18 97.7617C369.804 97.0508 370.665 96.6953 371.764 96.6953C372.698 96.6953 373.461 96.9049 374.054 97.3242C374.651 97.7435 375.004 98.484 375.113 99.5459H373.117ZM379.803 102.95C380.372 102.95 380.81 102.747 381.115 102.342C381.421 101.936 381.573 101.36 381.573 100.612C381.573 99.8649 381.421 99.2907 381.115 98.8896C380.81 98.484 380.372 98.2812 379.803 98.2812C379.233 98.2812 378.793 98.484 378.483 98.8896C378.178 99.2907 378.025 99.8649 378.025 100.612C378.025 101.36 378.178 101.936 378.483 102.342C378.793 102.747 379.233 102.95 379.803 102.95ZM383.617 100.612C383.617 101.706 383.303 102.643 382.674 103.422C382.045 104.197 381.09 104.584 379.81 104.584C378.529 104.584 377.574 104.197 376.945 103.422C376.316 102.643 376.002 101.706 376.002 100.612C376.002 99.5368 376.316 98.6048 376.945 97.8164C377.574 97.028 378.529 96.6338 379.81 96.6338C381.09 96.6338 382.045 97.028 382.674 97.8164C383.303 98.6048 383.617 99.5368 383.617 100.612ZM389.147 96.6953C389.918 96.6953 390.547 96.8981 391.034 97.3037C391.526 97.7048 391.772 98.3724 391.772 99.3066V104.324H389.776V99.792C389.776 99.4001 389.724 99.0993 389.619 98.8896C389.428 98.5068 389.063 98.3154 388.525 98.3154C387.865 98.3154 387.411 98.5957 387.165 99.1562C387.037 99.4525 386.974 99.8307 386.974 100.291V104.324H385.032V96.8867H386.912V97.9736C387.163 97.5908 387.4 97.3151 387.623 97.1465C388.024 96.8457 388.532 96.6953 389.147 96.6953ZM392.812 98.3291V96.9414H393.851V94.8633H395.778V96.9414H396.988V98.3291H395.778V102.267C395.778 102.572 395.817 102.763 395.895 102.841C395.972 102.914 396.209 102.95 396.605 102.95C396.665 102.95 396.726 102.95 396.79 102.95C396.858 102.946 396.924 102.941 396.988 102.937V104.393L396.065 104.427C395.145 104.459 394.516 104.299 394.179 103.948C393.96 103.725 393.851 103.381 393.851 102.916V98.3291H392.812ZM402.348 100.701C402.225 100.779 402.099 100.842 401.972 100.893C401.849 100.938 401.678 100.981 401.459 101.022L401.021 101.104C400.611 101.177 400.317 101.266 400.14 101.371C399.839 101.549 399.688 101.825 399.688 102.198C399.688 102.531 399.78 102.772 399.962 102.923C400.149 103.069 400.374 103.142 400.639 103.142C401.058 103.142 401.443 103.019 401.794 102.772C402.149 102.526 402.334 102.077 402.348 101.426V100.701ZM401.165 99.792C401.525 99.7464 401.783 99.6895 401.938 99.6211C402.215 99.5026 402.354 99.318 402.354 99.0674C402.354 98.762 402.247 98.5524 402.033 98.4385C401.824 98.32 401.514 98.2607 401.104 98.2607C400.643 98.2607 400.317 98.3747 400.126 98.6025C399.989 98.7712 399.898 98.999 399.853 99.2861H397.973C398.014 98.6344 398.196 98.099 398.52 97.6797C399.035 97.0234 399.919 96.6953 401.172 96.6953C401.988 96.6953 402.712 96.8571 403.346 97.1807C403.979 97.5042 404.296 98.1149 404.296 99.0127V102.431C404.296 102.668 404.3 102.955 404.31 103.292C404.323 103.547 404.362 103.72 404.426 103.812C404.49 103.903 404.585 103.978 404.713 104.037V104.324H402.594C402.535 104.174 402.493 104.033 402.471 103.9C402.448 103.768 402.43 103.618 402.416 103.449C402.147 103.741 401.837 103.989 401.486 104.194C401.067 104.436 400.593 104.557 400.064 104.557C399.39 104.557 398.832 104.365 398.39 103.982C397.952 103.595 397.733 103.048 397.733 102.342C397.733 101.426 398.087 100.763 398.793 100.353C399.18 100.129 399.75 99.9697 400.502 99.874L401.165 99.792ZM408.035 95.9844H406.06V94.1865H408.035V95.9844ZM406.06 96.873H408.035V104.324H406.06V96.873ZM414.058 96.6953C414.828 96.6953 415.457 96.8981 415.944 97.3037C416.437 97.7048 416.683 98.3724 416.683 99.3066V104.324H414.687V99.792C414.687 99.4001 414.634 99.0993 414.529 98.8896C414.338 98.5068 413.973 98.3154 413.436 98.3154C412.775 98.3154 412.321 98.5957 412.075 99.1562C411.948 99.4525 411.884 99.8307 411.884 100.291V104.324H409.942V96.8867H411.822V97.9736C412.073 97.5908 412.31 97.3151 412.533 97.1465C412.934 96.8457 413.442 96.6953 414.058 96.6953ZM421.427 98.2812C420.976 98.2812 420.625 98.4225 420.374 98.7051C420.128 98.9876 419.973 99.3704 419.909 99.8535H422.938C422.906 99.3385 422.748 98.9489 422.466 98.6846C422.188 98.4157 421.841 98.2812 421.427 98.2812ZM421.427 96.6748C422.047 96.6748 422.605 96.791 423.102 97.0234C423.598 97.2559 424.008 97.6227 424.332 98.124C424.624 98.5661 424.813 99.0788 424.899 99.6621C424.95 100.004 424.97 100.496 424.961 101.139H419.861C419.889 101.886 420.123 102.41 420.565 102.711C420.834 102.898 421.158 102.991 421.536 102.991C421.937 102.991 422.263 102.877 422.514 102.649C422.65 102.526 422.771 102.355 422.876 102.137H424.865C424.815 102.579 424.585 103.028 424.175 103.483C423.537 104.208 422.644 104.57 421.495 104.57C420.547 104.57 419.711 104.265 418.986 103.654C418.262 103.044 417.899 102.05 417.899 100.674C417.899 99.3841 418.225 98.3952 418.877 97.707C419.533 97.0189 420.383 96.6748 421.427 96.6748ZM430.327 96.6953C430.364 96.6953 430.393 96.6976 430.416 96.7021C430.443 96.7021 430.5 96.7044 430.587 96.709V98.7051C430.464 98.6914 430.354 98.6823 430.259 98.6777C430.163 98.6732 430.086 98.6709 430.026 98.6709C429.243 98.6709 428.716 98.9261 428.447 99.4365C428.297 99.7236 428.222 100.166 428.222 100.763V104.324H426.26V96.873H428.119V98.1719C428.42 97.6751 428.682 97.3356 428.905 97.1533C429.27 96.848 429.744 96.6953 430.327 96.6953ZM433.253 101.945C433.294 102.292 433.383 102.538 433.52 102.684C433.761 102.943 434.208 103.073 434.859 103.073C435.242 103.073 435.545 103.016 435.769 102.902C435.996 102.788 436.11 102.618 436.11 102.39C436.11 102.171 436.019 102.005 435.837 101.891C435.655 101.777 434.978 101.581 433.807 101.303C432.964 101.093 432.369 100.831 432.022 100.517C431.676 100.207 431.503 99.7601 431.503 99.1768C431.503 98.4886 431.772 97.8984 432.31 97.4062C432.852 96.9095 433.613 96.6611 434.593 96.6611C435.522 96.6611 436.279 96.848 436.862 97.2217C437.45 97.5908 437.787 98.2311 437.874 99.1426H435.926C435.898 98.8919 435.828 98.6937 435.714 98.5479C435.5 98.2835 435.135 98.1514 434.62 98.1514C434.196 98.1514 433.893 98.2174 433.711 98.3496C433.533 98.4818 433.444 98.6367 433.444 98.8145C433.444 99.0378 433.54 99.1995 433.731 99.2998C433.923 99.4046 434.6 99.5846 435.762 99.8398C436.536 100.022 437.118 100.298 437.505 100.667C437.888 101.041 438.079 101.508 438.079 102.068C438.079 102.807 437.803 103.41 437.252 103.88C436.705 104.345 435.857 104.577 434.709 104.577C433.538 104.577 432.672 104.331 432.111 103.839C431.555 103.342 431.277 102.711 431.277 101.945H433.253Z" fill="white"/>
<path d="M254.688 223.443H256.896L260.908 230.478V223.443H262.87V233.52H260.765L256.649 226.362V233.52H254.688V223.443ZM266.685 225.18H264.709V223.382H266.685V225.18ZM264.709 226.068H266.685V233.52H264.709V226.068ZM272.707 225.891C273.477 225.891 274.106 226.093 274.594 226.499C275.086 226.9 275.332 227.568 275.332 228.502V233.52H273.336V228.987C273.336 228.595 273.284 228.295 273.179 228.085C272.987 227.702 272.623 227.511 272.085 227.511C271.424 227.511 270.971 227.791 270.725 228.352C270.597 228.648 270.533 229.026 270.533 229.486V233.52H268.592V226.082H270.472V227.169C270.722 226.786 270.959 226.51 271.183 226.342C271.584 226.041 272.092 225.891 272.707 225.891ZM280.076 227.477C279.625 227.477 279.274 227.618 279.023 227.9C278.777 228.183 278.622 228.566 278.559 229.049H281.587C281.555 228.534 281.398 228.144 281.115 227.88C280.837 227.611 280.491 227.477 280.076 227.477ZM280.076 225.87C280.696 225.87 281.254 225.986 281.751 226.219C282.248 226.451 282.658 226.818 282.981 227.319C283.273 227.761 283.462 228.274 283.549 228.857C283.599 229.199 283.619 229.691 283.61 230.334H278.511C278.538 231.081 278.773 231.605 279.215 231.906C279.484 232.093 279.807 232.187 280.186 232.187C280.587 232.187 280.912 232.073 281.163 231.845C281.3 231.722 281.421 231.551 281.525 231.332H283.515C283.465 231.774 283.234 232.223 282.824 232.679C282.186 233.403 281.293 233.766 280.145 233.766C279.197 233.766 278.36 233.46 277.636 232.85C276.911 232.239 276.549 231.245 276.549 229.869C276.549 228.579 276.875 227.59 277.526 226.902C278.183 226.214 279.033 225.87 280.076 225.87ZM288.334 227.094C288.334 226.032 288.639 225.173 289.25 224.517C289.865 223.856 290.663 223.525 291.643 223.525C293.151 223.525 294.186 224.193 294.746 225.528C295.065 226.285 295.225 227.281 295.225 228.516C295.225 229.714 295.072 230.715 294.767 231.517C294.183 233.043 293.112 233.807 291.554 233.807C290.811 233.807 290.143 233.588 289.551 233.15C288.958 232.708 288.619 232.066 288.532 231.223H290.474C290.519 231.514 290.642 231.751 290.843 231.934C291.043 232.116 291.31 232.207 291.643 232.207C292.285 232.207 292.736 231.852 292.996 231.141C293.137 230.749 293.226 230.177 293.263 229.425C293.085 229.648 292.896 229.819 292.695 229.938C292.331 230.156 291.882 230.266 291.349 230.266C290.56 230.266 289.861 229.994 289.25 229.452C288.639 228.905 288.334 228.119 288.334 227.094ZM291.772 228.68C292.041 228.68 292.294 228.602 292.531 228.447C292.973 228.165 293.194 227.675 293.194 226.978C293.194 226.417 293.062 225.973 292.798 225.645C292.538 225.316 292.18 225.152 291.725 225.152C291.392 225.152 291.107 225.246 290.87 225.433C290.496 225.724 290.31 226.219 290.31 226.916C290.31 227.504 290.428 227.946 290.665 228.242C290.907 228.534 291.276 228.68 291.772 228.68ZM298.103 230.382C298.103 230.915 298.246 231.35 298.533 231.688C298.82 232.025 299.185 232.193 299.627 232.193C300.06 232.193 300.399 232.032 300.646 231.708C300.896 231.38 301.021 230.956 301.021 230.437C301.021 229.858 300.88 229.416 300.598 229.11C300.315 228.8 299.969 228.646 299.559 228.646C299.226 228.646 298.932 228.746 298.677 228.946C298.294 229.243 298.103 229.721 298.103 230.382ZM300.844 226.103C300.844 225.943 300.782 225.768 300.659 225.576C300.45 225.266 300.133 225.111 299.709 225.111C299.076 225.111 298.624 225.467 298.355 226.178C298.21 226.57 298.109 227.148 298.055 227.914C298.296 227.627 298.576 227.417 298.896 227.285C299.215 227.153 299.579 227.087 299.989 227.087C300.869 227.087 301.589 227.385 302.149 227.982C302.715 228.579 302.997 229.343 302.997 230.272C302.997 231.198 302.721 232.013 302.17 232.72C301.618 233.426 300.762 233.779 299.6 233.779C298.351 233.779 297.43 233.257 296.838 232.214C296.378 231.398 296.147 230.345 296.147 229.056C296.147 228.299 296.179 227.684 296.243 227.21C296.357 226.367 296.578 225.665 296.906 225.104C297.189 224.626 297.558 224.241 298.014 223.949C298.474 223.658 299.023 223.512 299.661 223.512C300.582 223.512 301.315 223.749 301.862 224.223C302.409 224.692 302.717 225.319 302.785 226.103H300.844ZM303.824 228.693H307.748V230.539H303.824V228.693ZM312.239 233.52L314.782 229.746L312.349 226.082H314.734L315.979 228.242L317.195 226.082H319.513L317.065 229.712L319.608 233.52H317.182L315.896 231.284L314.604 233.52H312.239ZM324.722 226.684V225.357C325.337 225.33 325.768 225.289 326.014 225.234C326.406 225.148 326.725 224.975 326.971 224.715C327.139 224.537 327.267 224.3 327.354 224.004C327.404 223.826 327.429 223.694 327.429 223.607H329.049V233.52H327.053V226.684H324.722ZM331.981 233.52C332 232.809 332.152 232.159 332.439 231.571C332.717 230.91 333.374 230.211 334.408 229.473C335.306 228.83 335.887 228.37 336.151 228.092C336.557 227.659 336.76 227.185 336.76 226.67C336.76 226.251 336.644 225.902 336.411 225.624C336.179 225.346 335.846 225.207 335.413 225.207C334.821 225.207 334.417 225.428 334.203 225.87C334.08 226.125 334.007 226.531 333.984 227.087H332.091C332.123 226.244 332.275 225.562 332.549 225.043C333.068 224.054 333.991 223.56 335.317 223.56C336.366 223.56 337.2 223.851 337.819 224.435C338.439 225.013 338.749 225.781 338.749 226.738C338.749 227.472 338.53 228.124 338.093 228.693C337.806 229.072 337.334 229.493 336.678 229.958L335.898 230.512C335.411 230.858 335.076 231.109 334.894 231.264C334.716 231.419 334.565 231.599 334.442 231.804H338.77V233.52H331.981ZM341.647 230.867C341.725 231.291 341.873 231.619 342.092 231.852C342.311 232.079 342.63 232.193 343.049 232.193C343.532 232.193 343.899 232.025 344.149 231.688C344.405 231.346 344.532 230.917 344.532 230.402C344.532 229.896 344.414 229.47 344.177 229.124C343.94 228.773 343.571 228.598 343.069 228.598C342.832 228.598 342.627 228.627 342.454 228.687C342.149 228.796 341.919 228.999 341.764 229.295L340.014 229.213L340.711 223.737H346.173V225.392H342.119L341.764 227.559C342.064 227.363 342.299 227.233 342.468 227.169C342.75 227.064 343.094 227.012 343.5 227.012C344.32 227.012 345.036 227.287 345.646 227.839C346.257 228.39 346.562 229.192 346.562 230.245C346.562 231.161 346.269 231.979 345.681 232.699C345.093 233.419 344.213 233.779 343.042 233.779C342.099 233.779 341.324 233.526 340.718 233.021C340.112 232.515 339.774 231.797 339.706 230.867H341.647ZM347.451 228.693H351.375V230.539H347.451V228.693ZM354.704 225.18H352.729V223.382H354.704V225.18ZM352.729 226.068H354.704V233.52H352.729V226.068ZM360.727 225.891C361.497 225.891 362.126 226.093 362.613 226.499C363.105 226.9 363.352 227.568 363.352 228.502V233.52H361.355V228.987C361.355 228.595 361.303 228.295 361.198 228.085C361.007 227.702 360.642 227.511 360.104 227.511C359.444 227.511 358.99 227.791 358.744 228.352C358.617 228.648 358.553 229.026 358.553 229.486V233.52H356.611V226.082H358.491V227.169C358.742 226.786 358.979 226.51 359.202 226.342C359.603 226.041 360.111 225.891 360.727 225.891ZM374.187 229.794C374.187 229.22 374.054 228.712 373.79 228.27C373.53 227.827 373.106 227.606 372.519 227.606C371.812 227.606 371.327 227.941 371.062 228.611C370.926 228.967 370.857 229.418 370.857 229.965C370.857 230.831 371.088 231.439 371.548 231.79C371.821 231.995 372.145 232.098 372.519 232.098C373.061 232.098 373.473 231.888 373.756 231.469C374.043 231.049 374.187 230.491 374.187 229.794ZM373.079 225.904C373.95 225.904 374.686 226.226 375.287 226.868C375.893 227.511 376.196 228.454 376.196 229.698C376.196 231.011 375.9 232.011 375.308 232.699C374.72 233.387 373.961 233.731 373.031 233.731C372.439 233.731 371.947 233.583 371.555 233.287C371.34 233.123 371.131 232.884 370.926 232.569V236.452H368.998V226.068H370.864V227.169C371.074 226.845 371.297 226.59 371.534 226.403C371.967 226.071 372.482 225.904 373.079 225.904ZM381.72 229.896C381.597 229.974 381.471 230.038 381.344 230.088C381.221 230.133 381.05 230.177 380.831 230.218L380.394 230.3C379.983 230.373 379.689 230.462 379.512 230.566C379.211 230.744 379.061 231.02 379.061 231.394C379.061 231.726 379.152 231.968 379.334 232.118C379.521 232.264 379.746 232.337 380.011 232.337C380.43 232.337 380.815 232.214 381.166 231.968C381.521 231.722 381.706 231.273 381.72 230.621V229.896ZM380.537 228.987C380.897 228.942 381.155 228.885 381.31 228.816C381.588 228.698 381.727 228.513 381.727 228.263C381.727 227.957 381.619 227.748 381.405 227.634C381.196 227.515 380.886 227.456 380.476 227.456C380.015 227.456 379.689 227.57 379.498 227.798C379.361 227.966 379.27 228.194 379.225 228.481H377.345C377.386 227.83 377.568 227.294 377.892 226.875C378.407 226.219 379.291 225.891 380.544 225.891C381.36 225.891 382.084 226.052 382.718 226.376C383.351 226.7 383.668 227.31 383.668 228.208V231.626C383.668 231.863 383.673 232.15 383.682 232.487C383.695 232.743 383.734 232.916 383.798 233.007C383.862 233.098 383.957 233.173 384.085 233.232V233.52H381.966C381.907 233.369 381.866 233.228 381.843 233.096C381.82 232.964 381.802 232.813 381.788 232.645C381.519 232.936 381.209 233.185 380.858 233.39C380.439 233.631 379.965 233.752 379.437 233.752C378.762 233.752 378.204 233.561 377.762 233.178C377.324 232.79 377.105 232.243 377.105 231.537C377.105 230.621 377.459 229.958 378.165 229.548C378.552 229.325 379.122 229.165 379.874 229.069L380.537 228.987ZM387.394 233.52H385.445V223.443H387.394V233.52ZM391.29 233.52H389.342V223.443H391.29V233.52ZM396.137 227.477C395.686 227.477 395.335 227.618 395.084 227.9C394.838 228.183 394.683 228.566 394.619 229.049H397.647C397.616 228.534 397.458 228.144 397.176 227.88C396.898 227.611 396.551 227.477 396.137 227.477ZM396.137 225.87C396.757 225.87 397.315 225.986 397.812 226.219C398.308 226.451 398.718 226.818 399.042 227.319C399.334 227.761 399.523 228.274 399.609 228.857C399.66 229.199 399.68 229.691 399.671 230.334H394.571C394.599 231.081 394.833 231.605 395.275 231.906C395.544 232.093 395.868 232.187 396.246 232.187C396.647 232.187 396.973 232.073 397.224 231.845C397.36 231.722 397.481 231.551 397.586 231.332H399.575C399.525 231.774 399.295 232.223 398.885 232.679C398.247 233.403 397.354 233.766 396.205 233.766C395.257 233.766 394.421 233.46 393.696 232.85C392.972 232.239 392.609 231.245 392.609 229.869C392.609 228.579 392.935 227.59 393.587 226.902C394.243 226.214 395.093 225.87 396.137 225.87ZM400.225 227.524V226.137H401.264V224.059H403.191V226.137H404.401V227.524H403.191V231.462C403.191 231.767 403.23 231.959 403.308 232.036C403.385 232.109 403.622 232.146 404.019 232.146C404.078 232.146 404.139 232.146 404.203 232.146C404.271 232.141 404.338 232.136 404.401 232.132V233.588L403.479 233.622C402.558 233.654 401.929 233.494 401.592 233.144C401.373 232.92 401.264 232.576 401.264 232.111V227.524H400.225ZM407.17 231.141C407.211 231.487 407.3 231.733 407.437 231.879C407.678 232.139 408.125 232.269 408.776 232.269C409.159 232.269 409.462 232.212 409.686 232.098C409.913 231.984 410.027 231.813 410.027 231.585C410.027 231.366 409.936 231.2 409.754 231.086C409.572 230.972 408.895 230.776 407.724 230.498C406.881 230.288 406.286 230.026 405.939 229.712C405.593 229.402 405.42 228.955 405.42 228.372C405.42 227.684 405.689 227.094 406.227 226.602C406.769 226.105 407.53 225.856 408.51 225.856C409.439 225.856 410.196 226.043 410.779 226.417C411.367 226.786 411.704 227.426 411.791 228.338H409.843C409.815 228.087 409.745 227.889 409.631 227.743C409.417 227.479 409.052 227.347 408.537 227.347C408.113 227.347 407.81 227.413 407.628 227.545C407.45 227.677 407.361 227.832 407.361 228.01C407.361 228.233 407.457 228.395 407.648 228.495C407.84 228.6 408.517 228.78 409.679 229.035C410.453 229.217 411.035 229.493 411.422 229.862C411.805 230.236 411.996 230.703 411.996 231.264C411.996 232.002 411.72 232.606 411.169 233.075C410.622 233.54 409.774 233.772 408.626 233.772C407.455 233.772 406.589 233.526 406.028 233.034C405.472 232.537 405.194 231.906 405.194 231.141H407.17ZM413.343 235.14C413.735 235.03 414.022 234.848 414.204 234.593C414.391 234.338 414.498 233.98 414.525 233.52H413.343V231.482H415.448V233.246C415.448 233.556 415.407 233.88 415.325 234.217C415.243 234.554 415.09 234.846 414.867 235.092C414.626 235.356 414.341 235.554 414.013 235.687C413.689 235.823 413.466 235.892 413.343 235.892V235.14ZM422.722 230.382C422.722 230.915 422.865 231.35 423.152 231.688C423.439 232.025 423.804 232.193 424.246 232.193C424.679 232.193 425.019 232.032 425.265 231.708C425.515 231.38 425.641 230.956 425.641 230.437C425.641 229.858 425.499 229.416 425.217 229.11C424.934 228.8 424.588 228.646 424.178 228.646C423.845 228.646 423.551 228.746 423.296 228.946C422.913 229.243 422.722 229.721 422.722 230.382ZM425.463 226.103C425.463 225.943 425.401 225.768 425.278 225.576C425.069 225.266 424.752 225.111 424.328 225.111C423.695 225.111 423.243 225.467 422.975 226.178C422.829 226.57 422.729 227.148 422.674 227.914C422.915 227.627 423.196 227.417 423.515 227.285C423.834 227.153 424.198 227.087 424.608 227.087C425.488 227.087 426.208 227.385 426.769 227.982C427.334 228.579 427.616 229.343 427.616 230.272C427.616 231.198 427.34 232.013 426.789 232.72C426.238 233.426 425.381 233.779 424.219 233.779C422.97 233.779 422.049 233.257 421.457 232.214C420.997 231.398 420.767 230.345 420.767 229.056C420.767 228.299 420.799 227.684 420.862 227.21C420.976 226.367 421.197 225.665 421.525 225.104C421.808 224.626 422.177 224.241 422.633 223.949C423.093 223.658 423.642 223.512 424.28 223.512C425.201 223.512 425.935 223.749 426.481 224.223C427.028 224.692 427.336 225.319 427.404 226.103H425.463ZM435.443 231.387H434.322V233.52H432.415V231.387H428.491V229.685L432.135 223.669H434.322V229.862H435.443V231.387ZM432.415 229.862V225.583L429.934 229.862H432.415ZM442.724 225.18H440.748V223.382H442.724V225.18ZM440.748 226.068H442.724V233.52H440.748V226.068ZM448.746 225.891C449.516 225.891 450.145 226.093 450.633 226.499C451.125 226.9 451.371 227.568 451.371 228.502V233.52H449.375V228.987C449.375 228.595 449.323 228.295 449.218 228.085C449.026 227.702 448.662 227.511 448.124 227.511C447.463 227.511 447.01 227.791 446.764 228.352C446.636 228.648 446.572 229.026 446.572 229.486V233.52H444.631V226.082H446.511V227.169C446.761 226.786 446.998 226.51 447.222 226.342C447.623 226.041 448.131 225.891 448.746 225.891ZM461.181 225.877C461.641 225.877 462.058 225.957 462.432 226.116C462.81 226.276 463.12 226.52 463.361 226.848C463.566 227.126 463.692 227.413 463.737 227.709C463.783 228.001 463.806 228.479 463.806 229.145V233.52H461.816V228.987C461.816 228.586 461.748 228.263 461.611 228.017C461.434 227.67 461.096 227.497 460.6 227.497C460.085 227.497 459.693 227.67 459.424 228.017C459.16 228.358 459.027 228.848 459.027 229.486V233.52H457.086V223.478H459.027V227.039C459.31 226.606 459.636 226.305 460.005 226.137C460.379 225.964 460.771 225.877 461.181 225.877ZM467.634 225.18H465.658V223.382H467.634V225.18ZM465.658 226.068H467.634V233.52H465.658V226.068ZM472.727 231.92C473.182 231.92 473.567 231.749 473.882 231.407C474.196 231.061 474.354 230.512 474.354 229.76C474.354 229.053 474.203 228.516 473.902 228.146C473.606 227.777 473.207 227.593 472.706 227.593C472.022 227.593 471.551 227.914 471.291 228.557C471.154 228.898 471.086 229.32 471.086 229.821C471.086 230.254 471.159 230.639 471.305 230.977C471.569 231.605 472.043 231.92 472.727 231.92ZM472.241 225.891C472.615 225.891 472.941 225.948 473.219 226.062C473.693 226.257 474.076 226.618 474.367 227.142V226.068H476.261V233.137C476.261 234.098 476.099 234.823 475.775 235.311C475.219 236.149 474.153 236.568 472.576 236.568C471.624 236.568 470.847 236.382 470.245 236.008C469.644 235.634 469.311 235.076 469.247 234.333H471.366C471.421 234.561 471.51 234.725 471.633 234.825C471.842 235.003 472.196 235.092 472.692 235.092C473.394 235.092 473.864 234.857 474.101 234.388C474.256 234.087 474.333 233.581 474.333 232.87V232.392C474.146 232.711 473.946 232.95 473.731 233.109C473.344 233.406 472.84 233.554 472.221 233.554C471.264 233.554 470.498 233.219 469.924 232.549C469.354 231.874 469.069 230.963 469.069 229.814C469.069 228.707 469.345 227.777 469.896 227.025C470.448 226.269 471.229 225.891 472.241 225.891ZM482.194 225.877C482.655 225.877 483.072 225.957 483.445 226.116C483.824 226.276 484.133 226.52 484.375 226.848C484.58 227.126 484.705 227.413 484.751 227.709C484.797 228.001 484.819 228.479 484.819 229.145V233.52H482.83V228.987C482.83 228.586 482.762 228.263 482.625 228.017C482.447 227.67 482.11 227.497 481.613 227.497C481.098 227.497 480.706 227.67 480.438 228.017C480.173 228.358 480.041 228.848 480.041 229.486V233.52H478.1V223.478H480.041V227.039C480.324 226.606 480.649 226.305 481.019 226.137C481.392 225.964 481.784 225.877 482.194 225.877Z" fill="white"/>
<path d="M466.709 15.248V17.4697H469.184C469.626 17.4697 469.983 17.3877 470.257 17.2236C470.535 17.055 470.674 16.7588 470.674 16.335C470.674 15.8656 470.492 15.5557 470.127 15.4053C469.812 15.3005 469.411 15.248 468.924 15.248H466.709ZM466.709 19.1377V21.8242H469.184C469.626 21.8242 469.97 21.765 470.216 21.6465C470.662 21.4277 470.886 21.0085 470.886 20.3887C470.886 19.8646 470.669 19.5046 470.236 19.3086C469.995 19.1992 469.655 19.1423 469.218 19.1377H466.709ZM469.594 13.498C470.829 13.5163 471.704 13.874 472.219 14.5713C472.529 14.9997 472.684 15.5124 472.684 16.1094C472.684 16.7246 472.529 17.2191 472.219 17.5928C472.046 17.8024 471.79 17.9938 471.453 18.167C471.968 18.3538 472.355 18.6501 472.615 19.0557C472.88 19.4613 473.012 19.9535 473.012 20.5322C473.012 21.1292 472.861 21.6647 472.561 22.1387C472.369 22.4531 472.13 22.7174 471.843 22.9316C471.519 23.1777 471.136 23.3464 470.694 23.4375C470.257 23.5286 469.781 23.5742 469.266 23.5742H464.699V13.498H469.594ZM476.566 16.123V20.6143C476.566 21.0381 476.617 21.3571 476.717 21.5713C476.895 21.9495 477.243 22.1387 477.763 22.1387C478.428 22.1387 478.884 21.8698 479.13 21.332C479.257 21.0404 479.321 20.6553 479.321 20.1768V16.123H481.297V23.5742H479.403V22.5215C479.385 22.5443 479.34 22.6126 479.267 22.7266C479.194 22.8405 479.107 22.9408 479.007 23.0273C478.701 23.3008 478.405 23.4876 478.118 23.5879C477.836 23.6882 477.503 23.7383 477.12 23.7383C476.017 23.7383 475.274 23.3418 474.892 22.5488C474.677 22.1113 474.57 21.4665 474.57 20.6143V16.123H476.566ZM485.173 23.5742H483.225V13.498H485.173V23.5742ZM487.06 13.5322H488.974V18.96L491.4 16.1572H493.813L491.209 19.0078L493.916 23.5742H491.564L489.78 20.3887L488.974 21.2295V23.5742H487.06V13.5322Z" fill="white"/>
</svg>
